SplineFontDB: 3.0
FontName: AVHersheySimplexMedium
FullName: AVHershey Simplex Medium
FamilyName: AVHershey Simplex
Weight: Medium
Copyright: Made in 2016 by Stewart C. Russell - scruss.com\n\nLicence: Dual-licensed CC0/WTFPL (srsly)\n\nDerived from character stroke coordinates by Allen V. Hershey published in "Calligraphy for Computers" (US Naval Weapons Laboratory, 1967-08-01, NWL Report No. 2101, NTIS accession number AD-662 398) and elsewhere. These coordinates were published without copyright.\n\nThe efforts of the Usenet Font Consortium (James Hurt, et al) who reformatted Hershey's data and published it to mod.sources on 1986-04-01 [Volume 4, Issue 42] are greatly appreciated.
UComments: "2016-2-6: Created with FontForge (http://fontforge.org)"
Version: 000.001
ItalicAngle: 0
UnderlinePosition: -100
UnderlineWidth: 50
Ascent: 800
Descent: 200
InvalidEm: 0
LayerCount: 2
Layer: 0 0 "Back" 1
Layer: 1 0 "Fore" 0
XUID: [1021 383 -2038660523 3589370]
StyleMap: 0x0000
FSType: 0
OS2Version: 0
OS2_WeightWidthSlopeOnly: 0
OS2_UseTypoMetrics: 1
CreationTime: 1454816815
ModificationTime: 1454977489
OS2TypoAscent: 0
OS2TypoAOffset: 1
OS2TypoDescent: 0
OS2TypoDOffset: 1
OS2TypoLinegap: 90
OS2WinAscent: 0
OS2WinAOffset: 1
OS2WinDescent: 0
OS2WinDOffset: 1
HheadAscent: 0
HheadAOffset: 1
HheadDescent: 0
HheadDOffset: 1
MarkAttachClasses: 1
DEI: 91125
Encoding: ISO8859-1
UnicodeInterp: none
NameList: AGL For New Fonts
DisplaySize: -48
AntiAlias: 1
FitToEm: 1
WinInfo: 0 29 11
BeginPrivate: 0
EndPrivate
BeginChars: 260 89

StartChar: exclam
Encoding: 33 33 0
Width: 261
VWidth: 0
Flags: W
HStem: 0 21G<119 141> 580 20G<119 141>
VStem: 102 56<199 583>
LayerCount: 2
Back
Fore
SplineSet
84 74 m 1
 119 106 l 1
 130 108 l 1
 141 106 l 1
 150 100 l 1
 182 65 l 1
 184 54 l 1
 182 43 l 1
 150 8 l 1
 141 2 l 1
 130 0 l 1
 119 2 l 1
 110 8 l 1
 78 43 l 1
 76 54 l 1
 78 65 l 1
 84 74 l 1
102 209 m 1
 102 572 l 1
 104 583 l 1
 110 592 l 1
 119 598 l 1
 130 600 l 1
 141 598 l 1
 150 592 l 1
 156 583 l 1
 158 572 l 1
 158 209 l 1
 156 199 l 1
 150 190 l 1
 141 183 l 1
 130 181 l 1
 119 183 l 1
 110 190 l 1
 104 199 l 1
 102 209 l 1
EndSplineSet
EndChar

StartChar: quotedbl
Encoding: 34 34 1
Width: 415
VWidth: 0
Flags: W
HStem: 365 233
VStem: 75 56<380 583> 283 56<380 583>
LayerCount: 2
Back
Fore
SplineSet
283 391 m 1
 283 572 l 1
 285 583 l 1
 291 592 l 1
 300 598 l 1
 311 600 l 1
 321 598 l 1
 330 592 l 1
 336 583 l 1
 339 572 l 1
 339 391 l 1
 336 380 l 1
 330 371 l 1
 321 365 l 1
 311 363 l 1
 300 365 l 1
 291 371 l 1
 285 380 l 1
 283 391 l 1
75 391 m 1
 75 572 l 1
 78 583 l 1
 84 592 l 1
 93 598 l 1
 103 600 l 1
 114 598 l 1
 123 592 l 1
 129 583 l 1
 131 572 l 1
 131 391 l 1
 129 380 l 1
 123 371 l 1
 114 365 l 1
 103 363 l 1
 93 365 l 1
 84 371 l 1
 78 380 l 1
 75 391 l 1
EndSplineSet
EndChar

StartChar: numbersign
Encoding: 35 35 2
Width: 543
VWidth: 0
Flags: W
HStem: -181 21G<87 118 242 273> 155 56<66 141 211 297 366 450> 311 56<92 175 245 331 400 476>
LayerCount: 2
Back
Fore
SplineSet
75 -147 m 1
 141 155 l 1
 66 158 l 1
 57 164 l 1
 51 173 l 1
 49 183 l 1
 51 194 l 1
 57 203 l 1
 66 209 l 1
 77 211 l 1
 154 211 l 1
 175 311 l 1
 92 313 l 1
 83 319 l 1
 77 328 l 1
 75 339 l 1
 77 350 l 1
 83 359 l 1
 92 365 l 1
 103 367 l 1
 188 367 l 1
 257 682 l 1
 261 692 l 1
 269 699 l 1
 279 703 l 1
 290 703 l 1
 300 699 l 1
 307 691 l 1
 311 681 l 1
 311 670 l 1
 245 367 l 1
 343 367 l 1
 412 682 l 1
 416 692 l 1
 424 699 l 1
 434 703 l 1
 445 703 l 1
 455 699 l 1
 463 691 l 1
 467 681 l 1
 467 670 l 1
 400 367 l 1
 476 365 l 1
 485 359 l 1
 491 350 l 1
 493 339 l 1
 491 328 l 1
 485 319 l 1
 476 313 l 1
 388 311 l 1
 366 211 l 1
 450 209 l 1
 459 203 l 1
 465 194 l 1
 467 183 l 1
 465 173 l 1
 459 164 l 1
 450 158 l 1
 439 155 l 1
 354 155 l 1
 285 -159 l 1
 281 -169 l 1
 273 -177 l 1
 263 -181 l 1
 252 -181 l 1
 242 -176 l 1
 234 -168 l 1
 230 -158 l 1
 231 -147 l 1
 297 155 l 1
 199 155 l 1
 130 -159 l 1
 126 -169 l 1
 118 -177 l 1
 108 -181 l 1
 97 -181 l 1
 87 -176 l 1
 79 -168 l 1
 75 -158 l 1
 75 -147 l 1
233 311 m 1
 211 211 l 1
 309 211 l 1
 331 311 l 1
 233 311 l 1
EndSplineSet
EndChar

StartChar: dollar
Encoding: 36 36 3
Width: 517
VWidth: 0
Flags: W
HStem: 0 56<234 282> 544 56<234 282>
VStem: 49 56<449 483> 178 56<-86 0 67 291 371 533 600 686> 282 56<-86 0 67 255 335 533 600 686> 411 56<117 177>
LayerCount: 2
Back
Fore
SplineSet
178 592 m 1
 178 676 l 1
 180 686 l 1
 186 695 l 1
 195 701 l 1
 206 704 l 1
 217 701 l 1
 226 695 l 1
 232 686 l 1
 234 600 l 1
 282 600 l 1
 284 686 l 1
 290 695 l 1
 299 701 l 1
 310 704 l 1
 321 701 l 1
 330 695 l 1
 336 686 l 1
 338 676 l 1
 338 592 l 1
 396 573 l 1
 407 566 l 1
 459 514 l 1
 465 505 l 1
 467 494 l 1
 465 484 l 1
 459 474 l 1
 450 468 l 1
 439 466 l 1
 429 468 l 1
 372 522 l 1
 338 533 l 1
 338 316 l 1
 400 286 l 1
 438 248 l 1
 464 196 l 1
 467 183 l 1
 467 106 l 1
 465 95 l 1
 459 86 l 1
 407 34 l 1
 396 27 l 1
 338 8 l 1
 336 -86 l 1
 330 -95 l 1
 321 -101 l 1
 310 -104 l 1
 299 -101 l 1
 290 -95 l 1
 284 -86 l 1
 282 0 l 1
 234 0 l 1
 232 -86 l 1
 226 -95 l 1
 217 -101 l 1
 206 -104 l 1
 195 -101 l 1
 186 -95 l 1
 180 -86 l 1
 178 -76 l 1
 178 8 l 1
 120 27 l 1
 109 34 l 1
 57 86 l 1
 51 95 l 1
 49 106 l 1
 51 116 l 1
 57 126 l 1
 66 132 l 1
 77 134 l 1
 87 132 l 1
 144 78 l 1
 178 67 l 1
 178 310 l 1
 116 340 l 1
 78 378 l 1
 52 430 l 1
 49 442 l 1
 49 494 l 1
 51 505 l 1
 57 514 l 1
 109 566 l 1
 120 573 l 1
 178 592 l 1
234 544 m 1
 234 350 l 1
 282 335 l 1
 282 544 l 1
 234 544 l 1
178 533 m 1
 144 522 l 1
 105 483 l 1
 105 449 l 1
 126 407 l 1
 145 388 l 1
 178 371 l 1
 178 533 l 1
234 56 m 1
 282 56 l 1
 282 276 l 1
 234 291 l 1
 234 56 l 1
338 255 m 1
 338 67 l 1
 372 78 l 1
 411 117 l 1
 411 177 l 1
 390 219 l 1
 371 238 l 1
 338 255 l 1
EndSplineSet
EndChar

StartChar: ampersand
Encoding: 38 38 4
Width: 673
VWidth: 0
Flags: W
HStem: 0 56<187 278 524 558> 399 20G<533 580> 580 20G<272 297>
VStem: 49 56<138 177> 180 54<447 488> 334 56<449 488>
LayerCount: 2
Back
Fore
SplineSet
214 342 m 1
 206 356 l 1
 180 434 l 1
 178 494 l 1
 181 507 l 1
 213 566 l 1
 272 597 l 1
 284 600 l 1
 297 597 l 1
 356 566 l 1
 387 507 l 1
 390 494 l 1
 390 442 l 1
 387 430 l 1
 361 378 l 1
 330 345 l 1
 294 323 l 1
 400 174 l 1
 415 197 l 1
 465 323 l 1
 498 385 l 1
 533 417 l 1
 569 419 l 1
 580 417 l 1
 589 410 l 1
 621 375 l 1
 623 339 l 1
 621 328 l 1
 615 319 l 1
 606 313 l 1
 595 311 l 1
 584 313 l 1
 575 319 l 1
 569 328 l 1
 567 353 l 1
 558 363 l 1
 540 348 l 1
 517 301 l 1
 466 173 l 1
 434 125 l 1
 482 77 l 1
 524 56 l 1
 558 56 l 1
 567 66 l 1
 569 91 l 1
 575 100 l 1
 584 106 l 1
 595 108 l 1
 606 106 l 1
 615 100 l 1
 621 91 l 1
 623 80 l 1
 623 54 l 1
 621 43 l 1
 615 34 l 1
 580 2 l 1
 517 0 l 1
 505 3 l 1
 453 29 l 1
 401 79 l 1
 349 29 l 1
 297 3 l 1
 284 0 l 1
 181 0 l 1
 168 3 l 1
 109 34 l 1
 78 67 l 1
 52 119 l 1
 49 132 l 1
 49 183 l 1
 52 196 l 1
 78 248 l 1
 109 281 l 1
 214 342 l 1
263 370 m 1
 293 387 l 1
 313 407 l 1
 334 449 l 1
 334 488 l 1
 315 525 l 1
 284 541 l 1
 253 525 l 1
 234 488 l 1
 234 447 l 1
 258 377 l 1
 263 370 l 1
245 295 m 1
 146 239 l 1
 126 219 l 1
 105 177 l 1
 105 138 l 1
 126 96 l 1
 145 77 l 1
 187 56 l 1
 278 56 l 1
 319 77 l 1
 366 124 l 1
 245 295 l 1
EndSplineSet
EndChar

StartChar: quotesingle
Encoding: 39 39 5
Width: 208
VWidth: 0
Flags: W
HStem: 365 233
VStem: 76 56<380 583>
LayerCount: 2
Back
Fore
SplineSet
76 391 m 1
 76 572 l 1
 78 583 l 1
 84 592 l 1
 93 598 l 1
 104 600 l 1
 115 598 l 1
 124 592 l 1
 130 583 l 1
 132 572 l 1
 132 391 l 1
 130 380 l 1
 124 371 l 1
 115 365 l 1
 104 363 l 1
 93 365 l 1
 84 371 l 1
 78 380 l 1
 76 391 l 1
EndSplineSet
EndChar

StartChar: parenleft
Encoding: 40 40 6
Width: 363
VWidth: 0
Flags: W
HStem: -181 21G<274 295>
VStem: 75 56<177.56 344.44>
LayerCount: 2
Back
Fore
SplineSet
213 644 m 1
 274 701 l 1
 285 704 l 1
 295 701 l 1
 304 695 l 1
 310 686 l 1
 313 676 l 1
 310 665 l 1
 255 606 l 1
 205 532 l 1
 156 433 l 1
 131 310 l 1
 131 212 l 1
 156 89 l 1
 205 -10 l 1
 255 -84 l 1
 310 -143 l 1
 313 -153 l 1
 310 -164 l 1
 304 -173 l 1
 295 -179 l 1
 285 -181 l 1
 274 -179 l 1
 265 -173 l 1
 213 -121 l 1
 156 -36 l 1
 102 74 l 1
 75 209 l 1
 76 318 l 1
 102 448 l 1
 156 559 l 1
 213 644 l 1
EndSplineSet
EndChar

StartChar: parenright
Encoding: 41 41 7
Width: 363
VWidth: 0
Flags: W
HStem: -181 21G<67 88>
VStem: 231 56<177.56 344.44>
LayerCount: 2
Back
Fore
SplineSet
107 606 m 1
 52 665 l 1
 49 676 l 1
 52 686 l 1
 58 695 l 1
 67 701 l 1
 77 704 l 1
 88 701 l 1
 97 695 l 1
 152 639 l 1
 206 559 l 1
 258 455 l 1
 286 318 l 1
 287 209 l 1
 260 74 l 1
 206 -36 l 1
 149 -121 l 1
 97 -173 l 1
 88 -179 l 1
 77 -181 l 1
 67 -179 l 1
 58 -173 l 1
 52 -164 l 1
 49 -153 l 1
 52 -143 l 1
 107 -84 l 1
 157 -10 l 1
 206 89 l 1
 231 212 l 1
 231 310 l 1
 206 433 l 1
 157 532 l 1
 107 606 l 1
EndSplineSet
EndChar

StartChar: asterisk
Encoding: 42 42 8
Width: 413
VWidth: 0
Flags: W
VStem: 178 56<95 212 311 427>
LayerCount: 2
Back
Fore
SplineSet
62 207 m 1
 152 261 l 1
 54 322 l 1
 49 332 l 1
 49 343 l 1
 52 353 l 1
 60 361 l 1
 70 366 l 1
 81 367 l 1
 178 311 l 1
 178 417 l 1
 180 427 l 1
 186 436 l 1
 195 442 l 1
 206 445 l 1
 217 442 l 1
 226 436 l 1
 232 427 l 1
 234 311 l 1
 331 367 l 1
 342 366 l 1
 352 361 l 1
 360 353 l 1
 363 343 l 1
 363 332 l 1
 358 322 l 1
 260 261 l 1
 358 200 l 1
 363 190 l 1
 363 179 l 1
 360 169 l 1
 352 161 l 1
 342 156 l 1
 331 156 l 1
 234 212 l 1
 234 106 l 1
 232 95 l 1
 226 86 l 1
 217 80 l 1
 206 78 l 1
 195 80 l 1
 186 86 l 1
 180 95 l 1
 178 212 l 1
 81 156 l 1
 70 156 l 1
 60 161 l 1
 52 169 l 1
 49 179 l 1
 49 190 l 1
 54 200 l 1
 62 207 l 1
EndSplineSet
EndChar

StartChar: plus
Encoding: 43 43 9
Width: 673
VWidth: 0
Flags: W
HStem: 0 21G<325 347> 233 56<92 308 364 580>
VStem: 308 56<17 233 289 505>
LayerCount: 2
Back
Fore
SplineSet
308 289 m 1
 308 494 l 1
 310 505 l 1
 316 514 l 1
 325 520 l 1
 336 522 l 1
 347 520 l 1
 356 514 l 1
 362 505 l 1
 364 494 l 1
 364 289 l 1
 569 289 l 1
 580 287 l 1
 589 281 l 1
 595 272 l 1
 597 261 l 1
 595 250 l 1
 589 241 l 1
 580 235 l 1
 569 233 l 1
 364 233 l 1
 364 28 l 1
 362 17 l 1
 356 8 l 1
 347 2 l 1
 336 0 l 1
 325 2 l 1
 316 8 l 1
 310 17 l 1
 308 28 l 1
 308 233 l 1
 103 233 l 1
 92 235 l 1
 83 241 l 1
 77 250 l 1
 75 261 l 1
 77 272 l 1
 83 281 l 1
 92 287 l 1
 103 289 l 1
 308 289 l 1
EndSplineSet
EndChar

StartChar: comma
Encoding: 44 44 10
Width: 261
VWidth: 0
Flags: W
HStem: -101 207
VStem: 78 104
LayerCount: 2
Back
Fore
SplineSet
124 1 m 1
 110 8 l 1
 84 34 l 1
 78 43 l 1
 76 54 l 1
 78 65 l 1
 84 74 l 1
 110 100 l 1
 119 106 l 1
 130 108 l 1
 141 106 l 1
 150 100 l 1
 182 65 l 1
 184 2 l 1
 181 -10 l 1
 150 -70 l 1
 115 -101 l 1
 104 -104 l 1
 93 -101 l 1
 84 -95 l 1
 78 -86 l 1
 76 -76 l 1
 78 -65 l 1
 107 -33 l 1
 124 1 l 1
EndSplineSet
EndChar

StartChar: hyphen
Encoding: 45 45 11
Width: 673
VWidth: 0
Flags: W
HStem: 233 56<92 580>
LayerCount: 2
Back
Fore
SplineSet
569 233 m 1
 103 233 l 1
 92 235 l 1
 83 241 l 1
 77 250 l 1
 75 261 l 1
 77 272 l 1
 83 281 l 1
 92 287 l 1
 103 289 l 1
 569 289 l 1
 580 287 l 1
 589 281 l 1
 595 272 l 1
 597 261 l 1
 595 250 l 1
 589 241 l 1
 580 235 l 1
 569 233 l 1
EndSplineSet
EndChar

StartChar: period
Encoding: 46 46 12
Width: 261
VWidth: 0
Flags: W
HStem: 2 104
VStem: 78 104
LayerCount: 2
Back
Fore
SplineSet
84 74 m 1
 119 106 l 1
 130 108 l 1
 141 106 l 1
 150 100 l 1
 182 65 l 1
 184 54 l 1
 182 43 l 1
 150 8 l 1
 141 2 l 1
 130 0 l 1
 119 2 l 1
 110 8 l 1
 78 43 l 1
 76 54 l 1
 78 65 l 1
 84 74 l 1
EndSplineSet
EndChar

StartChar: slash
Encoding: 47 47 13
Width: 571
VWidth: 0
Flags: W
HStem: -181 21G<38 59>
LayerCount: 2
Back
Fore
SplineSet
27 -140 m 1
 494 689 l 1
 501 698 l 1
 511 703 l 1
 521 703 l 1
 532 700 l 1
 540 693 l 1
 545 683 l 1
 546 672 l 1
 543 662 l 1
 76 -167 l 1
 69 -175 l 1
 59 -180 l 1
 49 -181 l 1
 38 -178 l 1
 30 -171 l 1
 25 -161 l 1
 24 -150 l 1
 27 -140 l 1
EndSplineSet
EndChar

StartChar: zero
Encoding: 48 48 14
Width: 518
VWidth: 0
Flags: W
HStem: 1 55<224 294> 544 55<224 301.667>
VStem: 50 56<228.708 371.292> 412 56<228.708 371.292>
LayerCount: 2
Back
Fore
SplineSet
147 573 m 1
 224 599 l 1
 285 600 l 1
 371 573 l 1
 386 562 l 1
 442 474 l 1
 468 344 l 1
 468 261 l 1
 442 126 l 1
 438 116 l 1
 380 32 l 1
 294 1 l 1
 224 1 l 1
 138 32 l 1
 80 116 l 1
 76 126 l 1
 50 256 l 1
 50 344 l 1
 80 484 l 1
 132 562 l 1
 147 573 l 1
238 544 m 1
 173 523 l 1
 130 457 l 1
 106 336 l 1
 106 264 l 1
 130 143 l 1
 173 77 l 1
 238 56 l 1
 280 56 l 1
 345 77 l 1
 388 143 l 1
 412 264 l 1
 412 336 l 1
 388 457 l 1
 345 523 l 1
 280 544 l 1
 238 544 l 1
EndSplineSet
EndChar

StartChar: one
Encoding: 49 49 15
Width: 519
VWidth: 0
Flags: W
HStem: 0 21G<274 296> 580 20G<274 296>
VStem: 257 56<17 504>
LayerCount: 2
Back
Fore
SplineSet
220 469 m 1
 157 440 l 1
 147 442 l 1
 137 447 l 1
 130 456 l 1
 127 466 l 1
 129 477 l 1
 134 487 l 1
 191 517 l 1
 265 592 l 1
 274 598 l 1
 285 600 l 1
 296 598 l 1
 305 592 l 1
 311 583 l 1
 313 572 l 1
 313 28 l 1
 311 17 l 1
 305 8 l 1
 296 2 l 1
 285 0 l 1
 274 2 l 1
 265 8 l 1
 259 17 l 1
 257 28 l 1
 257 504 l 1
 220 469 l 1
EndSplineSet
EndChar

StartChar: two
Encoding: 50 50 16
Width: 517
VWidth: 0
Flags: W
HStem: 0 56<144 450> 544 56<213 303>
VStem: 385 56<423 462>
LayerCount: 2
Back
Fore
SplineSet
131 462 m 1
 128 432 l 1
 122 423 l 1
 113 417 l 1
 103 414 l 1
 92 417 l 1
 83 423 l 1
 77 432 l 1
 75 442 l 1
 75 468 l 1
 78 481 l 1
 103 533 l 1
 142 571 l 1
 194 597 l 1
 206 600 l 1
 310 600 l 1
 322 597 l 1
 374 571 l 1
 407 540 l 1
 438 481 l 1
 441 468 l 1
 441 417 l 1
 438 404 l 1
 413 352 l 1
 356 267 l 1
 144 56 l 1
 439 56 l 1
 450 54 l 1
 459 48 l 1
 465 39 l 1
 467 28 l 1
 465 17 l 1
 459 8 l 1
 450 2 l 1
 439 0 l 1
 77 0 l 1
 66 2 l 1
 57 8 l 1
 51 17 l 1
 49 28 l 1
 51 39 l 1
 57 48 l 1
 314 305 l 1
 363 379 l 1
 385 423 l 1
 385 462 l 1
 365 504 l 1
 345 523 l 1
 303 544 l 1
 213 544 l 1
 171 523 l 1
 151 504 l 1
 131 462 l 1
EndSplineSet
EndChar

StartChar: three
Encoding: 51 51 17
Width: 517
VWidth: 0
Flags: W
HStem: 0 56<189.682 293> 544 56<118 357>
VStem: 411 56<166.682 244>
LayerCount: 2
Back
Fore
SplineSet
357 544 m 1
 128 544 l 1
 118 546 l 1
 109 552 l 1
 103 561 l 1
 100 572 l 1
 103 583 l 1
 109 592 l 1
 118 598 l 1
 128 600 l 1
 413 600 l 1
 424 598 l 1
 438 585 l 1
 440 564 l 1
 436 555 l 1
 314 393 l 1
 348 390 l 1
 400 364 l 1
 433 333 l 1
 440 322 l 1
 466 244 l 1
 467 183 l 1
 440 97 l 1
 433 86 l 1
 381 34 l 1
 370 27 l 1
 293 1 l 1
 206 0 l 1
 120 27 l 1
 109 34 l 1
 83 60 l 1
 52 119 l 1
 49 130 l 1
 50 140 l 1
 56 150 l 1
 64 157 l 1
 75 160 l 1
 86 158 l 1
 95 153 l 1
 126 96 l 1
 144 78 l 1
 211 56 l 1
 279 56 l 1
 346 78 l 1
 389 121 l 1
 411 188 l 1
 411 231 l 1
 389 298 l 1
 371 316 l 1
 329 337 l 1
 248 339 l 1
 233 352 l 1
 230 362 l 1
 236 382 l 1
 357 544 l 1
EndSplineSet
EndChar

StartChar: four
Encoding: 52 52 18
Width: 517
VWidth: 0
Flags: W
HStem: 0 21G<325 346> 181 56<131 308 364 476> 580 20G<321 342>
VStem: 308 56<17 181 237 485>
LayerCount: 2
Back
Fore
SplineSet
54 226 m 1
 313 588 l 1
 321 596 l 1
 331 600 l 1
 342 599 l 1
 352 595 l 1
 359 587 l 1
 364 572 l 1
 364 237 l 1
 476 235 l 1
 485 229 l 1
 491 220 l 1
 493 209 l 1
 491 199 l 1
 485 190 l 1
 476 183 l 1
 364 181 l 1
 364 28 l 1
 362 17 l 1
 356 8 l 1
 346 2 l 1
 336 0 l 1
 325 2 l 1
 316 8 l 1
 310 17 l 1
 308 181 l 1
 77 181 l 1
 58 188 l 1
 52 197 l 1
 50 216 l 1
 54 226 l 1
308 485 m 1
 131 237 l 1
 308 237 l 1
 308 485 l 1
EndSplineSet
EndChar

StartChar: five
Encoding: 53 53 19
Width: 518
VWidth: 0
Flags: W
HStem: 1 55<197 300.318> 363 56<211 279> 544 56<154 398>
VStem: 411 55<175 244>
LayerCount: 2
Back
Fore
SplineSet
128 600 m 1
 388 600 l 1
 398 598 l 1
 407 592 l 1
 413 583 l 1
 416 572 l 1
 413 561 l 1
 407 552 l 1
 398 546 l 1
 388 544 l 1
 154 544 l 1
 137 397 l 1
 206 419 l 1
 293 417 l 1
 370 391 l 1
 381 385 l 1
 433 333 l 1
 440 322 l 1
 466 244 l 1
 466 175 l 1
 440 97 l 1
 433 86 l 1
 381 34 l 1
 370 27 l 1
 284 0 l 1
 197 1 l 1
 120 27 l 1
 109 34 l 1
 78 67 l 1
 52 119 l 1
 49 130 l 1
 50 140 l 1
 56 150 l 1
 64 157 l 1
 75 160 l 1
 86 158 l 1
 95 153 l 1
 102 144 l 1
 126 96 l 1
 144 78 l 1
 211 56 l 1
 279 56 l 1
 346 78 l 1
 389 121 l 1
 411 188 l 1
 411 231 l 1
 389 298 l 1
 346 340 l 1
 279 363 l 1
 211 363 l 1
 144 340 l 1
 113 313 l 1
 102 311 l 1
 90 314 l 1
 81 321 l 1
 76 331 l 1
 75 342 l 1
 101 575 l 1
 110 593 l 1
 128 600 l 1
EndSplineSet
EndChar

StartChar: six
Encoding: 54 54 20
Width: 518
VWidth: 0
Flags: W
HStem: 1 55<249 293> 544 56<241.333 305>
VStem: 411 55<175 218>
LayerCount: 2
Back
Fore
SplineSet
75 208 m 1
 75 339 l 1
 101 474 l 1
 157 562 l 1
 171 573 l 1
 258 600 l 1
 319 599 l 1
 406 567 l 1
 438 507 l 1
 441 496 l 1
 440 485 l 1
 435 476 l 1
 426 469 l 1
 415 466 l 1
 405 468 l 1
 395 473 l 1
 368 523 l 1
 305 544 l 1
 263 544 l 1
 198 523 l 1
 155 457 l 1
 131 329 l 1
 160 359 l 1
 171 365 l 1
 258 393 l 1
 293 391 l 1
 370 365 l 1
 381 359 l 1
 433 307 l 1
 440 296 l 1
 466 218 l 1
 466 175 l 1
 440 97 l 1
 433 86 l 1
 381 34 l 1
 370 27 l 1
 293 1 l 1
 249 1 l 1
 171 27 l 1
 160 34 l 1
 109 86 l 1
 101 99 l 1
 75 208 l 1
132 208 m 1
 154 120 l 1
 195 78 l 1
 263 56 l 1
 279 56 l 1
 346 78 l 1
 389 121 l 1
 411 188 l 1
 411 205 l 1
 389 272 l 1
 346 314 l 1
 279 337 l 1
 263 337 l 1
 195 314 l 1
 153 272 l 1
 132 208 l 1
EndSplineSet
EndChar

StartChar: seven
Encoding: 55 55 21
Width: 517
VWidth: 0
Flags: W
HStem: 0 21G<168 190> 544 56<66 395>
LayerCount: 2
Back
Fore
SplineSet
155 40 m 1
 395 544 l 1
 77 544 l 1
 66 546 l 1
 57 552 l 1
 51 561 l 1
 49 572 l 1
 51 583 l 1
 57 592 l 1
 66 598 l 1
 77 600 l 1
 439 600 l 1
 451 597 l 1
 465 583 l 1
 467 572 l 1
 465 561 l 1
 206 16 l 1
 199 7 l 1
 190 2 l 1
 179 0 l 1
 168 3 l 1
 159 9 l 1
 154 19 l 1
 152 29 l 1
 155 40 l 1
EndSplineSet
EndChar

StartChar: eight
Encoding: 56 56 22
Width: 517
VWidth: 0
Flags: W
HStem: 0 56<189.682 326.318> 544 56<211 305>
VStem: 49 56<138 203> 75 56<449 488> 385 56<449 488> 411 56<138 203>
LayerCount: 2
Back
Fore
SplineSet
120 573 m 1xd0
 206 600 l 1
 310 600 l 1
 396 573 l 1
 406 567 l 1
 413 559 l 1
 438 507 l 1
 441 494 l 1
 441 442 l 1xd8
 438 430 l 1
 407 371 l 1
 357 344 l 1
 381 333 l 1
 438 274 l 1
 464 222 l 1
 467 209 l 1
 467 132 l 1
 464 119 l 1
 438 67 l 1
 407 34 l 1
 396 27 l 1
 310 0 l 1
 206 0 l 1
 120 27 l 1
 109 34 l 1
 78 67 l 1
 52 119 l 1
 49 132 l 1
 49 209 l 1xe4
 52 222 l 1
 83 281 l 1
 135 333 l 1
 159 344 l 1
 109 371 l 1
 78 430 l 1
 75 442 l 1
 75 494 l 1
 78 507 l 1
 103 559 l 1
 110 567 l 1
 120 573 l 1xd0
211 544 m 1
 148 523 l 1
 131 488 l 1
 131 449 l 1
 149 412 l 1
 190 391 l 1
 258 374 l 1
 326 391 l 1
 367 412 l 1
 385 449 l 1
 385 488 l 1
 368 523 l 1
 305 544 l 1
 211 544 l 1
258 316 m 1
 170 288 l 1
 126 245 l 1
 105 203 l 1
 105 138 l 1
 126 96 l 1
 144 78 l 1
 211 56 l 1
 305 56 l 1
 372 78 l 1
 390 96 l 1
 411 138 l 1
 411 203 l 1xe4
 390 245 l 1
 346 288 l 1
 258 316 l 1
EndSplineSet
EndChar

StartChar: nine
Encoding: 57 57 23
Width: 518
VWidth: 0
Flags: W
HStem: 1 55<212 275.667> 544 55<224 268>
VStem: 51 55<382 425>
LayerCount: 2
Back
Fore
SplineSet
442 394 m 1
 442 261 l 1
 416 126 l 1
 360 38 l 1
 346 27 l 1
 259 0 l 1
 198 1 l 1
 111 33 l 1
 104 41 l 1
 76 104 l 1
 77 115 l 1
 82 124 l 1
 91 131 l 1
 102 134 l 1
 112 132 l 1
 122 127 l 1
 149 77 l 1
 212 56 l 1
 254 56 l 1
 319 77 l 1
 362 143 l 1
 386 271 l 1
 357 241 l 1
 346 235 l 1
 259 207 l 1
 224 209 l 1
 147 235 l 1
 136 241 l 1
 84 293 l 1
 77 304 l 1
 51 382 l 1
 51 425 l 1
 77 503 l 1
 84 514 l 1
 136 566 l 1
 147 573 l 1
 224 599 l 1
 268 599 l 1
 346 573 l 1
 357 566 l 1
 408 514 l 1
 416 501 l 1
 442 394 l 1
364 328 m 1
 385 392 l 1
 363 480 l 1
 322 522 l 1
 254 544 l 1
 238 544 l 1
 171 522 l 1
 128 479 l 1
 106 412 l 1
 106 395 l 1
 128 328 l 1
 171 286 l 1
 238 263 l 1
 254 263 l 1
 322 286 l 1
 364 328 l 1
EndSplineSet
EndChar

StartChar: colon
Encoding: 58 58 24
Width: 261
VWidth: 0
Flags: W
HStem: 0 21G<119 141> 399 20G<119 141>
VStem: 78 104
LayerCount: 2
Back
Fore
SplineSet
84 385 m 1
 119 417 l 1
 130 419 l 1
 141 417 l 1
 150 410 l 1
 182 375 l 1
 184 365 l 1
 182 354 l 1
 150 319 l 1
 141 313 l 1
 130 311 l 1
 119 313 l 1
 84 345 l 1
 78 354 l 1
 76 365 l 1
 78 375 l 1
 84 385 l 1
84 74 m 1
 119 106 l 1
 130 108 l 1
 141 106 l 1
 150 100 l 1
 182 65 l 1
 184 54 l 1
 182 43 l 1
 150 8 l 1
 141 2 l 1
 130 0 l 1
 119 2 l 1
 110 8 l 1
 78 43 l 1
 76 54 l 1
 78 65 l 1
 84 74 l 1
EndSplineSet
EndChar

StartChar: semicolon
Encoding: 59 59 25
Width: 261
VWidth: 0
Flags: W
HStem: 399 20G<119 141>
VStem: 78 104
LayerCount: 2
Back
Fore
SplineSet
84 385 m 1
 119 417 l 1
 130 419 l 1
 141 417 l 1
 150 410 l 1
 182 375 l 1
 184 365 l 1
 182 354 l 1
 150 319 l 1
 141 313 l 1
 130 311 l 1
 119 313 l 1
 84 345 l 1
 78 354 l 1
 76 365 l 1
 78 375 l 1
 84 385 l 1
124 1 m 1
 110 8 l 1
 84 34 l 1
 78 43 l 1
 76 54 l 1
 78 65 l 1
 84 74 l 1
 110 100 l 1
 119 106 l 1
 130 108 l 1
 141 106 l 1
 150 100 l 1
 182 65 l 1
 184 2 l 1
 181 -10 l 1
 150 -70 l 1
 115 -101 l 1
 104 -104 l 1
 93 -101 l 1
 84 -95 l 1
 78 -86 l 1
 76 -76 l 1
 78 -65 l 1
 107 -33 l 1
 124 1 l 1
EndSplineSet
EndChar

StartChar: equal
Encoding: 61 61 26
Width: 673
VWidth: 0
Flags: W
HStem: 155 56<92 580> 311 56<92 580>
LayerCount: 2
Back
Fore
SplineSet
569 311 m 1
 103 311 l 1
 92 313 l 1
 83 319 l 1
 77 328 l 1
 75 339 l 1
 77 350 l 1
 83 359 l 1
 92 365 l 1
 103 367 l 1
 569 367 l 1
 580 365 l 1
 589 359 l 1
 595 350 l 1
 597 339 l 1
 595 328 l 1
 589 319 l 1
 580 313 l 1
 569 311 l 1
569 155 m 1
 103 155 l 1
 92 158 l 1
 83 164 l 1
 77 173 l 1
 75 183 l 1
 77 194 l 1
 83 203 l 1
 92 209 l 1
 103 211 l 1
 569 211 l 1
 580 209 l 1
 589 203 l 1
 595 194 l 1
 597 183 l 1
 595 173 l 1
 589 164 l 1
 580 158 l 1
 569 155 l 1
EndSplineSet
EndChar

StartChar: question
Encoding: 63 63 27
Width: 465
VWidth: 0
Flags: W
HStem: 0 21G<221 243> 544 56<187 277>
VStem: 204 54<199 270> 359 56<423 462>
LayerCount: 2
Back
Fore
SplineSet
105 462 m 1
 102 432 l 1
 96 423 l 1
 87 417 l 1
 77 414 l 1
 66 417 l 1
 57 423 l 1
 51 432 l 1
 49 442 l 1
 52 481 l 1
 77 533 l 1
 109 566 l 1
 168 597 l 1
 180 600 l 1
 284 600 l 1
 296 597 l 1
 348 571 l 1
 387 533 l 1
 412 481 l 1
 415 468 l 1
 415 417 l 1
 412 404 l 1
 387 352 l 1
 355 319 l 1
 260 270 l 1
 258 199 l 1
 252 190 l 1
 243 183 l 1
 232 181 l 1
 221 183 l 1
 212 190 l 1
 206 199 l 1
 204 209 l 1
 206 297 l 1
 219 312 l 1
 319 362 l 1
 339 381 l 1
 359 423 l 1
 359 462 l 1
 339 504 l 1
 319 523 l 1
 277 544 l 1
 187 544 l 1
 145 523 l 1
 125 504 l 1
 105 462 l 1
186 74 m 1
 221 106 l 1
 232 108 l 1
 243 106 l 1
 252 100 l 1
 284 65 l 1
 286 54 l 1
 284 43 l 1
 252 8 l 1
 243 2 l 1
 232 0 l 1
 221 2 l 1
 212 8 l 1
 180 43 l 1
 178 54 l 1
 180 65 l 1
 186 74 l 1
EndSplineSet
EndChar

StartChar: A
Encoding: 65 65 28
Width: 465
VWidth: 0
Flags: W
HStem: 0 21G<15 36 428 449> 181 56<134 330> 580 20G<222 243>
LayerCount: 2
Back
Fore
SplineSet
-1 38 m 1
 206 583 l 1
 213 592 l 1
 222 598 l 1
 233 600 l 1
 243 598 l 1
 252 591 l 1
 258 582 l 1
 465 38 l 1
 467 27 l 1
 465 17 l 1
 458 8 l 1
 449 2 l 1
 438 0 l 1
 428 2 l 1
 419 9 l 1
 413 18 l 1
 351 181 l 1
 113 181 l 1
 51 18 l 1
 45 9 l 1
 36 2 l 1
 26 0 l 1
 15 2 l 1
 6 8 l 1
 -1 17 l 1
 -3 27 l 1
 -1 38 l 1
232 493 m 1
 134 237 l 1
 330 237 l 1
 232 493 l 1
EndSplineSet
EndChar

StartChar: B
Encoding: 66 66 29
Width: 543
VWidth: 0
Flags: W
HStem: 0 56<131 352.318> 285 56<131 352.318> 544 56<131 352.318>
VStem: 75 56<56 285 341 544> 437 56<138 203 423 462>
LayerCount: 2
Back
Fore
SplineSet
75 572 m 1
 77 583 l 1
 83 592 l 1
 92 598 l 1
 103 600 l 1
 336 600 l 1
 422 573 l 1
 433 566 l 1
 464 533 l 1
 490 481 l 1
 493 468 l 1
 493 417 l 1
 490 404 l 1
 464 352 l 1
 433 319 l 1
 423 313 l 1
 433 307 l 1
 459 281 l 1
 490 222 l 1
 493 209 l 1
 493 132 l 1
 490 119 l 1
 464 67 l 1
 433 34 l 1
 422 27 l 1
 336 0 l 1
 103 0 l 1
 92 2 l 1
 83 8 l 1
 77 17 l 1
 75 28 l 1
 75 572 l 1
131 544 m 1
 131 341 l 1
 331 341 l 1
 398 363 l 1
 416 381 l 1
 437 423 l 1
 437 462 l 1
 416 504 l 1
 398 522 l 1
 331 544 l 1
 131 544 l 1
131 56 m 1
 331 56 l 1
 398 78 l 1
 416 96 l 1
 437 138 l 1
 437 203 l 1
 416 245 l 1
 398 263 l 1
 331 285 l 1
 131 285 l 1
 131 56 l 1
EndSplineSet
EndChar

StartChar: C
Encoding: 67 67 30
Width: 543
VWidth: 0
Flags: W
HStem: 0 56<239 329> 544 56<239 329>
VStem: 49 56<240 360>
LayerCount: 2
Back
Fore
SplineSet
464 507 m 1
 493 444 l 1
 492 434 l 1
 486 424 l 1
 478 417 l 1
 467 415 l 1
 456 416 l 1
 447 421 l 1
 416 478 l 1
 371 523 l 1
 329 544 l 1
 239 544 l 1
 197 523 l 1
 151 478 l 1
 129 432 l 1
 105 360 l 1
 105 240 l 1
 129 168 l 1
 151 122 l 1
 197 77 l 1
 239 56 l 1
 329 56 l 1
 371 77 l 1
 416 122 l 1
 447 179 l 1
 456 184 l 1
 467 185 l 1
 478 183 l 1
 486 176 l 1
 492 166 l 1
 493 156 l 1
 490 145 l 1
 459 86 l 1
 407 34 l 1
 348 3 l 1
 336 0 l 1
 232 0 l 1
 220 3 l 1
 168 29 l 1
 103 93 l 1
 76 149 l 1
 49 235 l 1
 50 374 l 1
 76 451 l 1
 103 507 l 1
 160 566 l 1
 220 597 l 1
 232 600 l 1
 336 600 l 1
 348 597 l 1
 407 566 l 1
 464 507 l 1
EndSplineSet
EndChar

StartChar: D
Encoding: 68 68 31
Width: 543
VWidth: 0
Flags: W
HStem: 0 56<131 300.636> 544 56<131 293>
VStem: 75 56<56 544> 437 56<240 360>
LayerCount: 2
Back
Fore
SplineSet
75 572 m 1
 77 583 l 1
 83 592 l 1
 92 598 l 1
 103 600 l 1
 293 599 l 1
 371 573 l 1
 382 566 l 1
 439 507 l 1
 466 451 l 1
 492 374 l 1
 493 235 l 1
 466 149 l 1
 439 93 l 1
 382 34 l 1
 371 27 l 1
 284 0 l 1
 103 0 l 1
 92 2 l 1
 83 8 l 1
 77 17 l 1
 75 28 l 1
 75 572 l 1
131 544 m 1
 131 56 l 1
 279 56 l 1
 347 78 l 1
 391 122 l 1
 413 168 l 1
 437 240 l 1
 437 360 l 1
 413 432 l 1
 391 478 l 1
 347 522 l 1
 279 544 l 1
 131 544 l 1
EndSplineSet
EndChar

StartChar: E
Encoding: 69 69 32
Width: 491
VWidth: 0
Flags: W
HStem: 0 56<131 450> 285 56<131 321> 544 56<131 450>
VStem: 75 56<56 285 341 544>
LayerCount: 2
Back
Fore
SplineSet
75 572 m 1
 77 583 l 1
 83 592 l 1
 92 598 l 1
 103 600 l 1
 439 600 l 1
 450 598 l 1
 459 592 l 1
 465 583 l 1
 467 572 l 1
 465 561 l 1
 459 552 l 1
 450 546 l 1
 439 544 l 1
 131 544 l 1
 131 341 l 1
 310 341 l 1
 321 339 l 1
 330 333 l 1
 336 324 l 1
 338 313 l 1
 336 302 l 1
 330 293 l 1
 321 287 l 1
 310 285 l 1
 131 285 l 1
 131 56 l 1
 439 56 l 1
 450 54 l 1
 459 48 l 1
 465 39 l 1
 467 28 l 1
 465 17 l 1
 459 8 l 1
 450 2 l 1
 439 0 l 1
 103 0 l 1
 92 2 l 1
 83 8 l 1
 77 17 l 1
 75 28 l 1
 75 572 l 1
EndSplineSet
EndChar

StartChar: F
Encoding: 70 70 33
Width: 465
VWidth: 0
Flags: W
HStem: 0 21G<92 113> 285 56<131 321> 544 56<131 450>
VStem: 75 56<17 285 341 544>
LayerCount: 2
Back
Fore
SplineSet
75 572 m 1
 77 583 l 1
 83 592 l 1
 92 598 l 1
 103 600 l 1
 439 600 l 1
 450 598 l 1
 459 592 l 1
 465 583 l 1
 467 572 l 1
 465 561 l 1
 459 552 l 1
 450 546 l 1
 439 544 l 1
 131 544 l 1
 131 341 l 1
 310 341 l 1
 321 339 l 1
 330 333 l 1
 336 324 l 1
 338 313 l 1
 336 302 l 1
 330 293 l 1
 321 287 l 1
 310 285 l 1
 131 285 l 1
 131 28 l 1
 128 17 l 1
 122 8 l 1
 113 2 l 1
 103 0 l 1
 92 2 l 1
 83 8 l 1
 77 17 l 1
 75 28 l 1
 75 572 l 1
EndSplineSet
EndChar

StartChar: G
Encoding: 71 71 34
Width: 543
VWidth: 0
Flags: W
HStem: 0 56<239 329> 207 56<325 437> 544 56<239 329>
VStem: 50 55<240 360> 437 56<164 207>
LayerCount: 2
Back
Fore
SplineSet
437 207 m 1
 325 209 l 1
 316 215 l 1
 310 225 l 1
 308 235 l 1
 310 246 l 1
 316 255 l 1
 325 261 l 1
 336 263 l 1
 465 263 l 1
 476 261 l 1
 485 255 l 1
 491 246 l 1
 493 235 l 1
 493 158 l 1
 490 145 l 1
 464 93 l 1
 407 34 l 1
 348 3 l 1
 336 0 l 1
 232 0 l 1
 220 3 l 1
 160 34 l 1
 109 86 l 1
 78 145 l 1
 50 226 l 1
 49 365 l 1
 76 451 l 1
 103 507 l 1
 160 566 l 1
 220 597 l 1
 232 600 l 1
 336 600 l 1
 348 597 l 1
 407 566 l 1
 459 514 l 1
 490 455 l 1
 493 444 l 1
 492 434 l 1
 486 424 l 1
 478 417 l 1
 467 415 l 1
 456 416 l 1
 447 421 l 1
 416 478 l 1
 371 523 l 1
 329 544 l 1
 239 544 l 1
 197 523 l 1
 151 478 l 1
 129 432 l 1
 105 360 l 1
 105 240 l 1
 129 168 l 1
 151 122 l 1
 197 77 l 1
 239 56 l 1
 329 56 l 1
 371 77 l 1
 416 122 l 1
 437 164 l 1
 437 207 l 1
EndSplineSet
EndChar

StartChar: H
Encoding: 72 72 35
Width: 569
VWidth: 0
Flags: W
HStem: 0 21G<92 113 455 476> 285 56<131 437> 580 20G<92 113 455 476>
VStem: 75 56<17 285 341 583> 437 56<17 285 341 583>
LayerCount: 2
Back
Fore
SplineSet
75 313 m 1
 75 572 l 1
 77 583 l 1
 83 592 l 1
 92 598 l 1
 103 600 l 1
 113 598 l 1
 122 592 l 1
 129 583 l 1
 131 572 l 1
 131 341 l 1
 437 341 l 1
 437 572 l 1
 439 583 l 1
 446 592 l 1
 455 598 l 1
 465 600 l 1
 476 598 l 1
 485 592 l 1
 491 583 l 1
 493 572 l 1
 493 28 l 1
 491 17 l 1
 485 8 l 1
 476 2 l 1
 465 0 l 1
 455 2 l 1
 446 8 l 1
 439 17 l 1
 437 28 l 1
 437 285 l 1
 131 285 l 1
 131 28 l 1
 129 17 l 1
 122 8 l 1
 113 2 l 1
 103 0 l 1
 92 2 l 1
 83 8 l 1
 77 17 l 1
 75 28 l 1
 75 313 l 1
EndSplineSet
EndChar

StartChar: I
Encoding: 73 73 36
Width: 208
VWidth: 0
Flags: W
HStem: 0 21G<93 115> 580 20G<93 115>
VStem: 76 56<17 583>
LayerCount: 2
Back
Fore
SplineSet
76 28 m 1
 76 572 l 1
 78 583 l 1
 84 592 l 1
 93 598 l 1
 104 600 l 1
 115 598 l 1
 124 592 l 1
 130 583 l 1
 132 572 l 1
 132 28 l 1
 130 17 l 1
 124 8 l 1
 115 2 l 1
 104 0 l 1
 93 2 l 1
 84 8 l 1
 78 17 l 1
 76 28 l 1
EndSplineSet
EndChar

StartChar: J
Encoding: 74 74 37
Width: 414
VWidth: 0
Flags: W
HStem: 0 56<161 199> 580 20G<299 320>
VStem: 24 55<149 220> 282 56<162 583>
LayerCount: 2
Back
Fore
SplineSet
282 162 m 1
 282 572 l 1
 284 583 l 1
 290 592 l 1
 299 598 l 1
 310 600 l 1
 320 598 l 1
 329 592 l 1
 335 583 l 1
 338 572 l 1
 338 158 l 1
 310 71 l 1
 304 60 l 1
 270 29 l 1
 219 3 l 1
 206 0 l 1
 154 0 l 1
 142 3 l 1
 90 29 l 1
 57 60 l 1
 50 71 l 1
 24 149 l 1
 23 209 l 1
 25 220 l 1
 31 229 l 1
 40 235 l 1
 51 237 l 1
 61 235 l 1
 70 229 l 1
 76 220 l 1
 79 209 l 1
 79 162 l 1
 101 95 l 1
 119 77 l 1
 161 56 l 1
 199 56 l 1
 241 77 l 1
 259 95 l 1
 282 162 l 1
EndSplineSet
EndChar

StartChar: K
Encoding: 75 75 38
Width: 543
VWidth: 0
Flags: W
HStem: 0 21G<92 113 451 472> 580 20G<92 113 455 476>
VStem: 75 56<17 198 277 583>
LayerCount: 2
Back
Fore
SplineSet
75 209 m 1
 75 572 l 1
 77 583 l 1
 83 592 l 1
 92 598 l 1
 103 600 l 1
 113 598 l 1
 122 592 l 1
 129 583 l 1
 131 572 l 1
 131 277 l 1
 446 592 l 1
 455 598 l 1
 465 600 l 1
 476 598 l 1
 485 592 l 1
 491 583 l 1
 493 572 l 1
 491 561 l 1
 485 552 l 1
 269 336 l 1
 488 45 l 1
 492 35 l 1
 493 24 l 1
 489 14 l 1
 482 6 l 1
 472 1 l 1
 461 0 l 1
 451 4 l 1
 443 11 l 1
 229 296 l 1
 131 198 l 1
 131 28 l 1
 129 17 l 1
 122 8 l 1
 113 2 l 1
 103 0 l 1
 92 2 l 1
 83 8 l 1
 77 17 l 1
 75 28 l 1
 75 209 l 1
EndSplineSet
EndChar

StartChar: L
Encoding: 76 76 39
Width: 439
VWidth: 0
Flags: W
HStem: 0 56<131 424> 580 20G<92 113>
VStem: 75 56<56 583>
LayerCount: 2
Back
Fore
SplineSet
75 28 m 1
 75 572 l 1
 77 583 l 1
 83 592 l 1
 92 598 l 1
 103 600 l 1
 113 598 l 1
 122 592 l 1
 128 583 l 1
 131 572 l 1
 131 56 l 1
 413 56 l 1
 424 54 l 1
 433 48 l 1
 439 39 l 1
 441 28 l 1
 439 17 l 1
 433 8 l 1
 424 2 l 1
 413 0 l 1
 103 0 l 1
 92 2 l 1
 83 8 l 1
 77 17 l 1
 75 28 l 1
EndSplineSet
EndChar

StartChar: M
Encoding: 77 77 40
Width: 621
VWidth: 0
Flags: W
HStem: 0 21G<92 113 299 321 507 528> 580 20G<93 114>
VStem: 75 56<17 420> 489 56<17 420>
LayerCount: 2
Back
Fore
SplineSet
75 28 m 1
 75 573 l 1
 83 592 l 1
 93 598 l 1
 104 600 l 1
 114 598 l 1
 129 583 l 1
 310 107 l 1
 491 583 l 1
 497 592 l 1
 507 598 l 1
 527 598 l 1
 536 592 l 1
 543 583 l 1
 545 572 l 1
 545 28 l 1
 543 17 l 1
 537 8 l 1
 528 2 l 1
 517 0 l 1
 507 2 l 1
 497 8 l 1
 491 17 l 1
 489 28 l 1
 489 420 l 1
 336 17 l 1
 321 2 l 1
 309 0 l 1
 299 2 l 1
 284 17 l 1
 131 420 l 1
 131 28 l 1
 129 17 l 1
 123 8 l 1
 113 2 l 1
 103 0 l 1
 92 2 l 1
 83 8 l 1
 77 17 l 1
 75 28 l 1
EndSplineSet
EndChar

StartChar: N
Encoding: 78 78 41
Width: 569
VWidth: 0
Flags: W
HStem: 0 21G<92 113 450 476> 580 20G<92 113 455 476>
VStem: 75 56<17 480> 437 56<120 583>
LayerCount: 2
Back
Fore
SplineSet
75 28 m 1
 75 572 l 1
 79 588 l 1
 92 598 l 1
 103 600 l 1
 113 598 l 1
 126 588 l 1
 437 120 l 1
 437 572 l 1
 439 583 l 1
 446 592 l 1
 455 598 l 1
 465 600 l 1
 476 598 l 1
 485 592 l 1
 491 583 l 1
 493 572 l 1
 493 28 l 1
 489 12 l 1
 476 2 l 1
 465 0 l 1
 450 5 l 1
 442 12 l 1
 131 480 l 1
 131 28 l 1
 129 17 l 1
 122 8 l 1
 113 2 l 1
 103 0 l 1
 92 2 l 1
 83 8 l 1
 77 17 l 1
 75 28 l 1
EndSplineSet
EndChar

StartChar: O
Encoding: 79 79 42
Width: 569
VWidth: 0
Flags: W
HStem: 0 56<239 329> 544 56<239 329>
VStem: 50 55<240 360> 463 56<240 360>
LayerCount: 2
Back
Fore
SplineSet
168 571 m 1
 230 600 l 1
 336 600 l 1
 348 597 l 1
 400 571 l 1
 464 507 l 1
 492 451 l 1
 518 374 l 1
 519 235 l 1
 490 145 l 1
 459 86 l 1
 407 34 l 1
 348 3 l 1
 336 0 l 1
 232 0 l 1
 220 3 l 1
 161 34 l 1
 104 93 l 1
 76 149 l 1
 50 226 l 1
 49 365 l 1
 76 451 l 1
 109 514 l 1
 168 571 l 1
239 544 m 1
 197 523 l 1
 152 478 l 1
 129 432 l 1
 105 360 l 1
 105 240 l 1
 129 168 l 1
 152 122 l 1
 197 77 l 1
 239 56 l 1
 329 56 l 1
 371 77 l 1
 416 122 l 1
 439 168 l 1
 463 240 l 1
 463 360 l 1
 439 432 l 1
 416 478 l 1
 371 523 l 1
 329 544 l 1
 239 544 l 1
EndSplineSet
EndChar

StartChar: P
Encoding: 80 80 43
Width: 543
VWidth: 0
Flags: W
HStem: 0 21G<92 113> 259 56<131 352.318> 544 56<131 345>
VStem: 75 56<17 259 315 544> 437 56<397 462>
LayerCount: 2
Back
Fore
SplineSet
75 572 m 1
 77 583 l 1
 83 592 l 1
 92 598 l 1
 103 600 l 1
 345 599 l 1
 422 573 l 1
 433 566 l 1
 464 533 l 1
 490 481 l 1
 493 468 l 1
 493 391 l 1
 490 378 l 1
 459 319 l 1
 433 293 l 1
 422 286 l 1
 336 259 l 1
 131 259 l 1
 131 28 l 1
 129 17 l 1
 122 8 l 1
 113 2 l 1
 103 0 l 1
 92 2 l 1
 83 8 l 1
 77 17 l 1
 75 28 l 1
 75 572 l 1
131 544 m 1
 131 315 l 1
 331 315 l 1
 398 337 l 1
 416 355 l 1
 437 397 l 1
 437 462 l 1
 416 504 l 1
 398 522 l 1
 331 544 l 1
 131 544 l 1
EndSplineSet
EndChar

StartChar: Q
Encoding: 81 81 44
Width: 569
VWidth: 0
Flags: W
HStem: 0 56<239 329> 544 56<239 329>
VStem: 49 56<240 360> 463 56<240 360>
LayerCount: 2
Back
Fore
SplineSet
168 571 m 1
 230 600 l 1
 336 600 l 1
 348 597 l 1
 407 566 l 1
 459 514 l 1
 490 455 l 1
 519 365 l 1
 519 235 l 1
 492 149 l 1
 464 93 l 1
 427 54 l 1
 491 -13 l 1
 493 -24 l 1
 491 -35 l 1
 485 -44 l 1
 476 -50 l 1
 465 -52 l 1
 455 -50 l 1
 446 -44 l 1
 382 20 l 1
 348 3 l 1
 336 0 l 1
 232 0 l 1
 220 3 l 1
 161 34 l 1
 109 86 l 1
 78 145 l 1
 49 235 l 1
 50 374 l 1
 76 451 l 1
 104 507 l 1
 168 571 l 1
388 94 m 1
 416 122 l 1
 439 168 l 1
 463 240 l 1
 463 360 l 1
 439 432 l 1
 416 478 l 1
 371 523 l 1
 329 544 l 1
 239 544 l 1
 197 523 l 1
 152 478 l 1
 129 432 l 1
 105 360 l 1
 105 240 l 1
 129 168 l 1
 152 122 l 1
 197 77 l 1
 239 56 l 1
 329 56 l 1
 340 62 l 1
 284 121 l 1
 282 132 l 1
 284 142 l 1
 290 151 l 1
 299 157 l 1
 310 160 l 1
 321 157 l 1
 330 151 l 1
 388 94 l 1
EndSplineSet
EndChar

StartChar: R
Encoding: 82 82 45
Width: 543
VWidth: 0
Flags: W
HStem: 0 21G<92 113 459 480> 285 56<131 269> 544 56<131 352.318>
VStem: 75 56<17 285 341 544> 437 56<423 462>
LayerCount: 2
Back
Fore
SplineSet
75 572 m 1
 77 583 l 1
 83 592 l 1
 92 598 l 1
 103 600 l 1
 336 600 l 1
 422 573 l 1
 433 566 l 1
 464 533 l 1
 490 481 l 1
 493 468 l 1
 493 417 l 1
 490 404 l 1
 464 352 l 1
 433 319 l 1
 422 312 l 1
 335 285 l 1
 489 43 l 1
 493 33 l 1
 493 22 l 1
 488 12 l 1
 480 4 l 1
 470 0 l 1
 459 1 l 1
 449 5 l 1
 442 13 l 1
 269 285 l 1
 131 285 l 1
 131 28 l 1
 129 17 l 1
 122 8 l 1
 113 2 l 1
 103 0 l 1
 92 2 l 1
 83 8 l 1
 77 17 l 1
 75 28 l 1
 75 572 l 1
131 544 m 1
 131 341 l 1
 331 341 l 1
 398 363 l 1
 416 381 l 1
 437 423 l 1
 437 462 l 1
 416 504 l 1
 398 522 l 1
 331 544 l 1
 131 544 l 1
EndSplineSet
EndChar

StartChar: S
Encoding: 83 83 46
Width: 517
VWidth: 0
Flags: W
HStem: 0 56<189.682 319> 544 55<197 326.318>
VStem: 49 56<449 483> 411 54<117 177>
LayerCount: 2
Back
Fore
SplineSet
407 566 m 1
 465 505 l 1
 467 494 l 1
 465 484 l 1
 459 474 l 1
 450 468 l 1
 439 466 l 1
 429 468 l 1
 420 474 l 1
 372 522 l 1
 305 544 l 1
 211 544 l 1
 144 522 l 1
 105 483 l 1
 105 449 l 1
 126 407 l 1
 145 388 l 1
 191 365 l 1
 345 314 l 1
 407 281 l 1
 438 248 l 1
 464 196 l 1
 467 183 l 1
 465 95 l 1
 407 34 l 1
 396 27 l 1
 319 1 l 1
 206 0 l 1
 120 27 l 1
 109 34 l 1
 51 95 l 1
 49 106 l 1
 51 116 l 1
 57 126 l 1
 66 132 l 1
 77 134 l 1
 87 132 l 1
 96 126 l 1
 144 78 l 1
 211 56 l 1
 305 56 l 1
 372 78 l 1
 411 117 l 1
 411 177 l 1
 390 219 l 1
 371 238 l 1
 325 261 l 1
 171 312 l 1
 109 345 l 1
 78 378 l 1
 52 430 l 1
 49 442 l 1
 51 505 l 1
 109 566 l 1
 120 573 l 1
 197 599 l 1
 310 600 l 1
 396 573 l 1
 407 566 l 1
EndSplineSet
EndChar

StartChar: T
Encoding: 84 84 47
Width: 413
VWidth: 0
Flags: W
HStem: 0 21G<195 217> 544 56<14 178 234 398>
VStem: 178 56<17 544>
LayerCount: 2
Back
Fore
SplineSet
178 544 m 1
 25 544 l 1
 14 546 l 1
 5 552 l 1
 -1 561 l 1
 -3 572 l 1
 -1 583 l 1
 5 592 l 1
 14 598 l 1
 25 600 l 1
 387 600 l 1
 398 598 l 1
 407 592 l 1
 413 583 l 1
 415 572 l 1
 413 561 l 1
 407 552 l 1
 398 546 l 1
 387 544 l 1
 234 544 l 1
 234 28 l 1
 232 17 l 1
 226 8 l 1
 217 2 l 1
 206 0 l 1
 195 2 l 1
 186 8 l 1
 180 17 l 1
 178 28 l 1
 178 544 l 1
EndSplineSet
EndChar

StartChar: U
Encoding: 85 85 48
Width: 569
VWidth: 0
Flags: W
HStem: 1 55<249 326.318> 580 20G<92 113 455 476>
VStem: 75 56<166.682 583> 437 56<166.682 583>
LayerCount: 2
Back
Fore
SplineSet
75 183 m 1
 75 572 l 1
 77 583 l 1
 83 592 l 1
 92 598 l 1
 103 600 l 1
 113 598 l 1
 122 592 l 1
 129 583 l 1
 131 572 l 1
 131 188 l 1
 153 121 l 1
 196 78 l 1
 263 56 l 1
 305 56 l 1
 372 78 l 1
 415 121 l 1
 437 188 l 1
 437 572 l 1
 439 583 l 1
 446 592 l 1
 455 598 l 1
 465 600 l 1
 476 598 l 1
 485 592 l 1
 491 583 l 1
 493 572 l 1
 493 183 l 1
 466 97 l 1
 459 86 l 1
 407 34 l 1
 396 27 l 1
 310 0 l 1
 249 1 l 1
 172 27 l 1
 161 34 l 1
 109 86 l 1
 102 97 l 1
 75 183 l 1
EndSplineSet
EndChar

StartChar: V
Encoding: 86 86 49
Width: 465
VWidth: 0
Flags: W
HStem: 0 21G<221 251> 580 20G<15 36 428 449>
LayerCount: 2
Back
Fore
SplineSet
232 107 m 1
 413 582 l 1
 419 591 l 1
 428 598 l 1
 438 600 l 1
 449 598 l 1
 458 592 l 1
 465 583 l 1
 467 573 l 1
 465 562 l 1
 258 18 l 1
 251 8 l 1
 233 0 l 1
 221 2 l 1
 212 9 l 1
 206 18 l 1
 -1 562 l 1
 -3 573 l 1
 -1 583 l 1
 6 592 l 1
 15 598 l 1
 26 600 l 1
 36 598 l 1
 45 591 l 1
 51 582 l 1
 232 107 l 1
EndSplineSet
EndChar

StartChar: W
Encoding: 87 87 50
Width: 623
VWidth: 0
Flags: W
HStem: 0 21G<167 198 426 457> 579 20G<45 67 288 327 555 577>
LayerCount: 2
Back
Fore
SplineSet
181 149 m 1
 284 578 l 1
 288 588 l 1
 305 599 l 1
 317 599 l 1
 327 595 l 1
 338 578 l 1
 441 149 l 1
 543 578 l 1
 547 588 l 1
 555 596 l 1
 566 600 l 1
 577 599 l 1
 586 595 l 1
 594 587 l 1
 598 576 l 1
 597 566 l 1
 468 22 l 1
 457 5 l 1
 445 0 l 1
 426 4 l 1
 418 12 l 1
 413 22 l 1
 311 451 l 1
 209 22 l 1
 198 5 l 1
 186 0 l 1
 167 4 l 1
 159 12 l 1
 154 22 l 1
 25 566 l 1
 24 576 l 1
 28 587 l 1
 36 595 l 1
 45 599 l 1
 56 600 l 1
 67 596 l 1
 75 588 l 1
 79 578 l 1
 181 149 l 1
EndSplineSet
EndChar

StartChar: X
Encoding: 88 88 51
Width: 519
VWidth: 0
Flags: W
HStem: 1 21G<62 93 425 456> 579 20G<62 93 425 456>
LayerCount: 2
Back
Fore
SplineSet
54 44 m 1
 225 300 l 1
 54 556 l 1
 50 567 l 1
 50 577 l 1
 54 588 l 1
 62 595 l 1
 72 599 l 1
 83 599 l 1
 93 595 l 1
 101 588 l 1
 259 350 l 1
 417 588 l 1
 425 595 l 1
 435 599 l 1
 446 599 l 1
 456 595 l 1
 464 588 l 1
 468 577 l 1
 468 567 l 1
 464 556 l 1
 293 300 l 1
 464 44 l 1
 468 33 l 1
 468 23 l 1
 464 12 l 1
 456 5 l 1
 446 1 l 1
 435 1 l 1
 425 5 l 1
 417 12 l 1
 259 250 l 1
 101 12 l 1
 93 5 l 1
 83 1 l 1
 72 1 l 1
 62 5 l 1
 54 12 l 1
 50 23 l 1
 50 33 l 1
 54 44 l 1
EndSplineSet
EndChar

StartChar: Y
Encoding: 89 89 52
Width: 465
VWidth: 0
Flags: W
HStem: 0 21G<221 243> 580 20G<17 38 426 447>
VStem: 204 56<17 303>
LayerCount: 2
Back
Fore
SplineSet
204 303 m 1
 3 555 l 1
 -2 564 l 1
 -3 575 l 1
 0 586 l 1
 7 594 l 1
 17 599 l 1
 28 600 l 1
 38 597 l 1
 47 589 l 1
 232 358 l 1
 417 589 l 1
 426 597 l 1
 436 600 l 1
 447 599 l 1
 457 594 l 1
 464 586 l 1
 467 575 l 1
 466 564 l 1
 461 555 l 1
 260 303 l 1
 260 28 l 1
 258 17 l 1
 252 8 l 1
 243 2 l 1
 232 0 l 1
 221 2 l 1
 212 8 l 1
 206 17 l 1
 204 28 l 1
 204 303 l 1
EndSplineSet
EndChar

StartChar: Z
Encoding: 90 90 53
Width: 517
VWidth: 0
Flags: W
HStem: 0 56<129 450> 544 56<66 387>
LayerCount: 2
Back
Fore
SplineSet
49 31 m 1
 53 44 l 1
 387 544 l 1
 77 544 l 1
 66 546 l 1
 57 552 l 1
 51 561 l 1
 49 572 l 1
 51 583 l 1
 57 592 l 1
 66 598 l 1
 77 600 l 1
 439 600 l 1
 455 595 l 1
 463 588 l 1
 467 577 l 1
 467 567 l 1
 463 556 l 1
 129 56 l 1
 439 56 l 1
 450 54 l 1
 459 48 l 1
 465 39 l 1
 467 28 l 1
 465 17 l 1
 459 8 l 1
 450 2 l 1
 439 0 l 1
 77 0 l 1
 66 2 l 1
 57 8 l 1
 51 17 l 1
 49 31 l 1
EndSplineSet
EndChar

StartChar: a
Encoding: 97 97 54
Width: 492
VWidth: 0
Flags: W
HStem: 0 56<214 278> 363 56<214 278>
VStem: 51 55<175 244> 360 56<117 301>
LayerCount: 2
Back
Fore
SplineSet
356 385 m 1
 360 381 l 1
 363 401 l 1
 369 410 l 1
 378 417 l 1
 388 419 l 1
 399 417 l 1
 408 410 l 1
 414 401 l 1
 416 391 l 1
 416 28 l 1
 414 17 l 1
 408 8 l 1
 399 2 l 1
 388 0 l 1
 378 2 l 1
 369 8 l 1
 363 17 l 1
 360 38 l 1
 349 29 l 1
 297 3 l 1
 285 0 l 1
 207 0 l 1
 195 3 l 1
 143 29 l 1
 84 86 l 1
 77 97 l 1
 51 175 l 1
 51 244 l 1
 77 322 l 1
 84 333 l 1
 135 385 l 1
 195 416 l 1
 207 419 l 1
 285 419 l 1
 297 416 l 1
 356 385 l 1
360 301 m 1
 320 342 l 1
 278 363 l 1
 214 363 l 1
 172 342 l 1
 128 298 l 1
 106 231 l 1
 106 188 l 1
 128 121 l 1
 172 77 l 1
 214 56 l 1
 278 56 l 1
 320 77 l 1
 360 117 l 1
 360 301 l 1
EndSplineSet
EndChar

StartChar: b
Encoding: 98 98 55
Width: 491
VWidth: 0
Flags: W
HStem: 0 56<213 277> 363 56<213 277> 580 20G<92 113>
VStem: 75 56<17 38 117 301 381 583> 385 56<166.682 244>
LayerCount: 2
Back
Fore
SplineSet
75 313 m 1
 75 572 l 1
 77 583 l 1
 83 592 l 1
 92 598 l 1
 103 600 l 1
 113 598 l 1
 122 592 l 1
 128 583 l 1
 131 572 l 1
 131 381 l 1
 142 390 l 1
 194 416 l 1
 206 419 l 1
 284 419 l 1
 296 416 l 1
 356 385 l 1
 407 333 l 1
 414 322 l 1
 440 244 l 1
 441 183 l 1
 414 97 l 1
 407 86 l 1
 356 34 l 1
 296 3 l 1
 284 0 l 1
 206 0 l 1
 194 3 l 1
 142 29 l 1
 131 38 l 1
 128 17 l 1
 122 8 l 1
 113 2 l 1
 103 0 l 1
 92 2 l 1
 83 8 l 1
 77 17 l 1
 75 28 l 1
 75 313 l 1
131 117 m 1
 171 77 l 1
 213 56 l 1
 277 56 l 1
 319 77 l 1
 363 121 l 1
 385 188 l 1
 385 231 l 1
 363 298 l 1
 319 342 l 1
 277 363 l 1
 213 363 l 1
 171 342 l 1
 131 301 l 1
 131 117 l 1
EndSplineSet
EndChar

StartChar: c
Encoding: 99 99 56
Width: 466
VWidth: 0
Flags: W
HStem: 0 56<214 278> 363 56<214 278>
VStem: 51 55<175 244>
LayerCount: 2
Back
Fore
SplineSet
356 385 m 1
 414 324 l 1
 416 313 l 1
 414 302 l 1
 408 293 l 1
 399 287 l 1
 388 285 l 1
 378 287 l 1
 320 342 l 1
 278 363 l 1
 214 363 l 1
 172 342 l 1
 128 298 l 1
 106 231 l 1
 106 188 l 1
 128 121 l 1
 172 77 l 1
 214 56 l 1
 278 56 l 1
 320 77 l 1
 369 126 l 1
 378 132 l 1
 388 134 l 1
 399 132 l 1
 408 126 l 1
 414 116 l 1
 416 106 l 1
 414 95 l 1
 356 34 l 1
 297 3 l 1
 285 0 l 1
 207 0 l 1
 195 3 l 1
 143 29 l 1
 84 86 l 1
 77 97 l 1
 51 175 l 1
 51 244 l 1
 77 322 l 1
 84 333 l 1
 135 385 l 1
 195 416 l 1
 207 419 l 1
 285 419 l 1
 297 416 l 1
 356 385 l 1
EndSplineSet
EndChar

StartChar: d
Encoding: 100 100 57
Width: 492
VWidth: 0
Flags: W
HStem: 0 56<214 278> 363 56<214 278> 580 20G<378 399>
VStem: 51 55<175 244> 360 56<17 38 117 301 381 583>
LayerCount: 2
Back
Fore
SplineSet
356 385 m 1
 360 381 l 1
 360 572 l 1
 363 583 l 1
 369 592 l 1
 378 598 l 1
 388 600 l 1
 399 598 l 1
 408 592 l 1
 414 583 l 1
 416 572 l 1
 416 28 l 1
 414 17 l 1
 408 8 l 1
 399 2 l 1
 388 0 l 1
 378 2 l 1
 369 8 l 1
 363 17 l 1
 360 38 l 1
 349 29 l 1
 297 3 l 1
 285 0 l 1
 207 0 l 1
 195 3 l 1
 143 29 l 1
 84 86 l 1
 77 97 l 1
 51 175 l 1
 51 244 l 1
 77 322 l 1
 84 333 l 1
 135 385 l 1
 195 416 l 1
 207 419 l 1
 285 419 l 1
 297 416 l 1
 356 385 l 1
360 301 m 1
 320 342 l 1
 278 363 l 1
 214 363 l 1
 172 342 l 1
 128 298 l 1
 106 231 l 1
 106 188 l 1
 128 121 l 1
 172 77 l 1
 214 56 l 1
 278 56 l 1
 320 77 l 1
 360 117 l 1
 360 301 l 1
EndSplineSet
EndChar

StartChar: e
Encoding: 101 101 58
Width: 465
VWidth: 0
Flags: W
HStem: 0 56<213 277> 207 56<115 359> 363 56<213 277>
VStem: 50 55<175 207> 359 56<263 280>
LayerCount: 2
Back
Fore
SplineSet
49 235 m 1
 76 322 l 1
 83 333 l 1
 134 385 l 1
 194 416 l 1
 206 419 l 1
 284 419 l 1
 296 416 l 1
 348 390 l 1
 387 351 l 1
 412 300 l 1
 415 287 l 1
 413 225 l 1
 407 215 l 1
 398 209 l 1
 387 207 l 1
 105 207 l 1
 105 188 l 1
 127 121 l 1
 171 77 l 1
 213 56 l 1
 277 56 l 1
 319 77 l 1
 368 126 l 1
 377 132 l 1
 387 134 l 1
 398 132 l 1
 407 126 l 1
 413 116 l 1
 415 106 l 1
 413 95 l 1
 355 34 l 1
 296 3 l 1
 284 0 l 1
 206 0 l 1
 194 3 l 1
 134 34 l 1
 83 86 l 1
 76 97 l 1
 50 175 l 1
 49 235 l 1
115 263 m 1
 359 263 l 1
 359 280 l 1
 339 322 l 1
 319 342 l 1
 277 363 l 1
 213 363 l 1
 171 342 l 1
 127 298 l 1
 115 263 l 1
EndSplineSet
EndChar

StartChar: f
Encoding: 102 102 59
Width: 312
VWidth: 0
Flags: W
HStem: 0 21G<119 141> 363 56<42 102 158 244> 544 56<214 270>
VStem: 102 56<17 363 419 464>
LayerCount: 2
Back
Fore
SplineSet
102 419 m 1
 103 477 l 1
 135 564 l 1
 195 597 l 1
 208 600 l 1
 260 600 l 1
 270 598 l 1
 279 592 l 1
 285 583 l 1
 288 572 l 1
 285 561 l 1
 279 552 l 1
 270 546 l 1
 214 544 l 1
 179 526 l 1
 158 464 l 1
 158 419 l 1
 244 417 l 1
 253 410 l 1
 259 401 l 1
 262 391 l 1
 259 380 l 1
 253 371 l 1
 244 365 l 1
 158 363 l 1
 158 28 l 1
 156 17 l 1
 150 8 l 1
 141 2 l 1
 130 0 l 1
 119 2 l 1
 110 8 l 1
 104 17 l 1
 102 28 l 1
 102 363 l 1
 42 365 l 1
 32 371 l 1
 26 380 l 1
 24 391 l 1
 26 401 l 1
 32 410 l 1
 42 417 l 1
 102 419 l 1
EndSplineSet
EndChar

StartChar: g
Encoding: 103 103 60
Width: 492
VWidth: 0
Flags: W
HStem: -181 56<214 278> 0 56<214 278> 363 56<214 278>
VStem: 51 55<175 244> 360 55<-33 38 117 301>
LayerCount: 2
Back
Fore
SplineSet
356 385 m 1
 360 381 l 1
 363 401 l 1
 369 410 l 1
 378 417 l 1
 388 419 l 1
 399 417 l 1
 408 410 l 1
 414 401 l 1
 416 391 l 1
 415 -33 l 1
 389 -110 l 1
 382 -121 l 1
 349 -152 l 1
 297 -178 l 1
 285 -181 l 1
 207 -181 l 1
 195 -178 l 1
 134 -146 l 1
 129 -136 l 1
 127 -125 l 1
 130 -115 l 1
 137 -106 l 1
 146 -101 l 1
 157 -99 l 1
 214 -125 l 1
 278 -125 l 1
 320 -104 l 1
 338 -86 l 1
 360 -19 l 1
 360 38 l 1
 349 29 l 1
 297 3 l 1
 285 0 l 1
 207 0 l 1
 195 3 l 1
 143 29 l 1
 84 86 l 1
 77 97 l 1
 51 175 l 1
 51 244 l 1
 77 322 l 1
 84 333 l 1
 135 385 l 1
 195 416 l 1
 207 419 l 1
 285 419 l 1
 297 416 l 1
 356 385 l 1
360 301 m 1
 320 342 l 1
 278 363 l 1
 214 363 l 1
 172 342 l 1
 128 298 l 1
 106 231 l 1
 106 188 l 1
 128 121 l 1
 172 77 l 1
 214 56 l 1
 278 56 l 1
 320 77 l 1
 360 117 l 1
 360 301 l 1
EndSplineSet
EndChar

StartChar: h
Encoding: 104 104 61
Width: 492
VWidth: 0
Flags: W
HStem: 0 21G<93 114 378 399> 363 56<240 304> 580 20G<93 114>
VStem: 75 56<17 275 355 583> 360 56<17 304.7>
LayerCount: 2
Back
Fore
SplineSet
75 287 m 1
 75 572 l 1
 78 583 l 1
 84 592 l 1
 93 598 l 1
 103 600 l 1
 114 598 l 1
 123 592 l 1
 129 583 l 1
 131 572 l 1
 131 355 l 1
 169 390 l 1
 220 416 l 1
 233 419 l 1
 311 419 l 1
 323 416 l 1
 375 390 l 1
 384 383 l 1
 389 374 l 1
 416 287 l 1
 416 28 l 1
 414 17 l 1
 408 8 l 1
 399 2 l 1
 388 0 l 1
 378 2 l 1
 369 8 l 1
 363 17 l 1
 360 28 l 1
 360 283 l 1
 340 345 l 1
 304 363 l 1
 240 363 l 1
 198 342 l 1
 131 275 l 1
 131 28 l 1
 129 17 l 1
 123 8 l 1
 114 2 l 1
 103 0 l 1
 93 2 l 1
 84 8 l 1
 78 17 l 1
 75 28 l 1
 75 287 l 1
EndSplineSet
EndChar

StartChar: i
Encoding: 105 105 62
Width: 209
VWidth: 0
Flags: W
HStem: 0 21G<93 115> 399 20G<93 115>
VStem: 76 56<17 401>
LayerCount: 2
Back
Fore
SplineSet
50 572 m 1
 52 583 l 1
 58 592 l 1
 84 618 l 1
 93 624 l 1
 104 626 l 1
 115 624 l 1
 124 618 l 1
 150 592 l 1
 156 583 l 1
 158 572 l 1
 156 561 l 1
 150 552 l 1
 124 526 l 1
 115 520 l 1
 104 518 l 1
 93 520 l 1
 84 526 l 1
 58 552 l 1
 52 561 l 1
 50 572 l 1
76 28 m 1
 76 391 l 1
 78 401 l 1
 84 410 l 1
 93 417 l 1
 104 419 l 1
 115 417 l 1
 124 410 l 1
 130 401 l 1
 132 391 l 1
 132 28 l 1
 130 17 l 1
 124 8 l 1
 115 2 l 1
 104 0 l 1
 93 2 l 1
 84 8 l 1
 78 17 l 1
 76 28 l 1
EndSplineSet
EndChar

StartChar: j
Encoding: 106 106 63
Width: 261
VWidth: 0
Flags: W
HStem: -181 56<16 72> 399 20G<145 167>
VStem: 128 54<-45 401>
LayerCount: 2
Back
Fore
SplineSet
102 572 m 1
 104 583 l 1
 110 592 l 1
 136 618 l 1
 145 624 l 1
 156 626 l 1
 167 624 l 1
 176 618 l 1
 202 592 l 1
 208 583 l 1
 210 572 l 1
 208 561 l 1
 202 552 l 1
 176 526 l 1
 167 520 l 1
 156 518 l 1
 145 520 l 1
 136 526 l 1
 110 552 l 1
 104 561 l 1
 102 572 l 1
128 -45 m 1
 128 391 l 1
 130 401 l 1
 136 410 l 1
 145 417 l 1
 156 419 l 1
 167 417 l 1
 176 410 l 1
 182 401 l 1
 184 391 l 1
 182 -59 l 1
 157 -136 l 1
 151 -146 l 1
 143 -152 l 1
 91 -178 l 1
 78 -181 l 1
 26 -181 l 1
 16 -179 l 1
 7 -173 l 1
 1 -164 l 1
 -2 -153 l 1
 1 -143 l 1
 7 -134 l 1
 16 -127 l 1
 72 -125 l 1
 107 -108 l 1
 128 -45 l 1
EndSplineSet
EndChar

StartChar: k
Encoding: 107 107 64
Width: 440
VWidth: 0
Flags: W
HStem: 0 21G<93 114 376 397> 399 20G<352 373> 580 20G<93 114>
VStem: 75 56<17 120 199 583>
LayerCount: 2
Back
Fore
SplineSet
75 132 m 1
 75 572 l 1
 78 583 l 1
 84 592 l 1
 93 598 l 1
 103 600 l 1
 114 598 l 1
 123 592 l 1
 129 583 l 1
 131 572 l 1
 131 199 l 1
 343 410 l 1
 352 417 l 1
 363 419 l 1
 373 417 l 1
 382 410 l 1
 388 401 l 1
 391 391 l 1
 388 380 l 1
 382 371 l 1
 245 234 l 1
 410 46 l 1
 415 37 l 1
 416 26 l 1
 414 16 l 1
 407 7 l 1
 397 1 l 1
 387 0 l 1
 376 3 l 1
 367 10 l 1
 206 194 l 1
 131 120 l 1
 129 17 l 1
 123 8 l 1
 114 2 l 1
 103 0 l 1
 93 2 l 1
 84 8 l 1
 78 17 l 1
 75 28 l 1
 75 132 l 1
EndSplineSet
EndChar

StartChar: l
Encoding: 108 108 65
Width: 208
VWidth: 0
Flags: W
HStem: 0 21G<93 115> 580 20G<93 115>
VStem: 76 56<17 583>
LayerCount: 2
Back
Fore
SplineSet
76 28 m 1
 76 572 l 1
 78 583 l 1
 84 592 l 1
 93 598 l 1
 104 600 l 1
 115 598 l 1
 124 592 l 1
 130 583 l 1
 132 572 l 1
 132 28 l 1
 130 17 l 1
 124 8 l 1
 115 2 l 1
 104 0 l 1
 93 2 l 1
 84 8 l 1
 78 17 l 1
 76 28 l 1
EndSplineSet
EndChar

StartChar: m
Encoding: 109 109 66
Width: 779
VWidth: 0
Flags: W
HStem: 0 21G<93 115 378 400 663 685> 363 56<240 305 525 590>
VStem: 76 56<17 275 355 401> 361 56<17 275> 646 56<17 283>
CounterMasks: 1 38
LayerCount: 2
Back
Fore
SplineSet
76 287 m 1
 76 391 l 1
 78 401 l 1
 84 410 l 1
 93 417 l 1
 104 419 l 1
 115 417 l 1
 124 410 l 1
 130 401 l 1
 132 355 l 1
 169 390 l 1
 221 416 l 1
 234 419 l 1
 311 419 l 1
 324 416 l 1
 384 383 l 1
 401 339 l 1
 447 385 l 1
 506 416 l 1
 519 419 l 1
 596 419 l 1
 609 416 l 1
 669 383 l 1
 701 296 l 1
 702 28 l 1
 700 17 l 1
 694 8 l 1
 685 2 l 1
 674 0 l 1
 663 2 l 1
 654 8 l 1
 648 17 l 1
 646 28 l 1
 646 283 l 1
 625 345 l 1
 590 363 l 1
 525 363 l 1
 483 342 l 1
 417 275 l 1
 417 28 l 1
 415 17 l 1
 409 8 l 1
 400 2 l 1
 389 0 l 1
 378 2 l 1
 369 8 l 1
 363 17 l 1
 361 28 l 1
 361 283 l 1
 340 345 l 1
 305 363 l 1
 240 363 l 1
 198 342 l 1
 132 275 l 1
 132 28 l 1
 130 17 l 1
 124 8 l 1
 115 2 l 1
 104 0 l 1
 93 2 l 1
 84 8 l 1
 78 17 l 1
 76 28 l 1
 76 287 l 1
EndSplineSet
EndChar

StartChar: n
Encoding: 110 110 67
Width: 492
VWidth: 0
Flags: W
HStem: 0 21G<93 114 378 399> 363 56<240 304>
VStem: 75 56<17 275 355 401> 360 56<17 304.7>
LayerCount: 2
Back
Fore
SplineSet
75 287 m 1
 75 391 l 1
 78 401 l 1
 84 410 l 1
 93 417 l 1
 103 419 l 1
 114 417 l 1
 123 410 l 1
 129 401 l 1
 131 355 l 1
 169 390 l 1
 220 416 l 1
 233 419 l 1
 311 419 l 1
 323 416 l 1
 384 383 l 1
 389 374 l 1
 416 287 l 1
 416 28 l 1
 414 17 l 1
 408 8 l 1
 399 2 l 1
 388 0 l 1
 378 2 l 1
 369 8 l 1
 363 17 l 1
 360 28 l 1
 360 283 l 1
 340 345 l 1
 304 363 l 1
 240 363 l 1
 198 342 l 1
 131 275 l 1
 131 28 l 1
 129 17 l 1
 123 8 l 1
 114 2 l 1
 103 0 l 1
 93 2 l 1
 84 8 l 1
 78 17 l 1
 75 28 l 1
 75 287 l 1
EndSplineSet
EndChar

StartChar: o
Encoding: 111 111 68
Width: 492
VWidth: 0
Flags: W
HStem: 0 56<214 278> 363 56<214 278>
VStem: 51 55<175 244> 386 56<166.682 244>
LayerCount: 2
Back
Fore
SplineSet
143 390 m 1
 205 419 l 1
 285 419 l 1
 297 416 l 1
 356 385 l 1
 408 333 l 1
 415 322 l 1
 441 244 l 1
 442 183 l 1
 415 97 l 1
 408 86 l 1
 356 34 l 1
 297 3 l 1
 285 0 l 1
 207 0 l 1
 195 3 l 1
 135 34 l 1
 84 86 l 1
 77 97 l 1
 51 175 l 1
 51 244 l 1
 77 322 l 1
 84 333 l 1
 143 390 l 1
214 363 m 1
 172 342 l 1
 128 298 l 1
 106 231 l 1
 106 188 l 1
 128 121 l 1
 172 77 l 1
 214 56 l 1
 278 56 l 1
 320 77 l 1
 364 121 l 1
 386 188 l 1
 386 231 l 1
 364 298 l 1
 320 342 l 1
 278 363 l 1
 214 363 l 1
EndSplineSet
EndChar

StartChar: p
Encoding: 112 112 69
Width: 491
VWidth: 0
Flags: W
HStem: -181 21G<92 113> 0 56<213 277> 363 56<213 277>
VStem: 75 56<-164 38 117 301> 385 55<175 252.318>
LayerCount: 2
Back
Fore
SplineSet
75 313 m 1
 75 391 l 1
 77 401 l 1
 83 410 l 1
 92 417 l 1
 103 419 l 1
 113 417 l 1
 122 410 l 1
 128 401 l 1
 131 381 l 1
 142 390 l 1
 194 416 l 1
 206 419 l 1
 284 419 l 1
 296 416 l 1
 348 390 l 1
 407 333 l 1
 414 322 l 1
 441 235 l 1
 440 175 l 1
 414 97 l 1
 407 86 l 1
 348 29 l 1
 296 3 l 1
 284 0 l 1
 206 0 l 1
 194 3 l 1
 142 29 l 1
 131 38 l 1
 131 -153 l 1
 128 -164 l 1
 122 -173 l 1
 113 -179 l 1
 103 -181 l 1
 92 -179 l 1
 83 -173 l 1
 77 -164 l 1
 75 -153 l 1
 75 313 l 1
131 117 m 1
 171 77 l 1
 213 56 l 1
 277 56 l 1
 319 77 l 1
 363 121 l 1
 385 188 l 1
 385 231 l 1
 363 298 l 1
 319 342 l 1
 277 363 l 1
 213 363 l 1
 171 342 l 1
 131 301 l 1
 131 117 l 1
EndSplineSet
EndChar

StartChar: q
Encoding: 113 113 70
Width: 491
VWidth: 0
Flags: W
HStem: -181 21G<377 398> 0 56<213 277> 363 56<213 277>
VStem: 49 56<166.682 244> 359 56<-164 38 117 301>
LayerCount: 2
Back
Fore
SplineSet
355 385 m 1
 359 381 l 1
 362 401 l 1
 368 410 l 1
 377 417 l 1
 387 419 l 1
 398 417 l 1
 407 410 l 1
 413 401 l 1
 415 391 l 1
 415 -153 l 1
 413 -164 l 1
 407 -173 l 1
 398 -179 l 1
 387 -181 l 1
 377 -179 l 1
 368 -173 l 1
 362 -164 l 1
 359 -153 l 1
 359 38 l 1
 348 29 l 1
 296 3 l 1
 284 0 l 1
 206 0 l 1
 194 3 l 1
 134 34 l 1
 83 86 l 1
 76 97 l 1
 49 183 l 1
 50 244 l 1
 76 322 l 1
 83 333 l 1
 142 390 l 1
 194 416 l 1
 206 419 l 1
 284 419 l 1
 296 416 l 1
 355 385 l 1
359 301 m 1
 319 342 l 1
 277 363 l 1
 213 363 l 1
 171 342 l 1
 127 298 l 1
 105 231 l 1
 105 188 l 1
 127 121 l 1
 171 77 l 1
 213 56 l 1
 277 56 l 1
 319 77 l 1
 359 117 l 1
 359 301 l 1
EndSplineSet
EndChar

StartChar: r
Encoding: 114 114 71
Width: 337
VWidth: 0
Flags: W
HStem: 0 21G<93 114> 363 56<239 321>
VStem: 75 56<17 231 355 401>
LayerCount: 2
Back
Fore
SplineSet
75 28 m 1
 75 391 l 1
 77 401 l 1
 83 410 l 1
 93 417 l 1
 103 419 l 1
 114 417 l 1
 123 410 l 1
 129 401 l 1
 131 391 l 1
 131 355 l 1
 168 390 l 1
 220 416 l 1
 233 419 l 1
 321 417 l 1
 330 410 l 1
 336 401 l 1
 339 391 l 1
 336 380 l 1
 330 371 l 1
 321 365 l 1
 311 363 l 1
 239 363 l 1
 198 342 l 1
 154 298 l 1
 131 231 l 1
 131 28 l 1
 129 17 l 1
 123 8 l 1
 114 2 l 1
 103 0 l 1
 93 2 l 1
 83 8 l 1
 77 17 l 1
 75 28 l 1
EndSplineSet
EndChar

StartChar: s
Encoding: 115 115 72
Width: 440
VWidth: 0
Flags: W
HStem: 0 56<186 254> 363 56<186 254>
LayerCount: 2
Back
Fore
SplineSet
362 377 m 1
 390 315 l 1
 389 304 l 1
 384 295 l 1
 375 288 l 1
 364 285 l 1
 354 286 l 1
 344 292 l 1
 317 342 l 1
 254 363 l 1
 186 363 l 1
 123 342 l 1
 109 313 l 1
 124 282 l 1
 164 262 l 1
 290 237 l 1
 356 203 l 1
 387 144 l 1
 390 106 l 1
 387 93 l 1
 355 33 l 1
 268 1 l 1
 181 0 l 1
 95 27 l 1
 85 33 l 1
 52 93 l 1
 50 104 l 1
 51 115 l 1
 56 124 l 1
 65 131 l 1
 75 134 l 1
 86 132 l 1
 96 127 l 1
 123 77 l 1
 186 56 l 1
 254 56 l 1
 317 77 l 1
 334 112 l 1
 334 125 l 1
 316 163 l 1
 276 183 l 1
 150 208 l 1
 84 241 l 1
 52 300 l 1
 49 313 l 1
 52 325 l 1
 85 386 l 1
 172 417 l 1
 259 419 l 1
 345 391 l 1
 355 386 l 1
 362 377 l 1
EndSplineSet
EndChar

StartChar: t
Encoding: 116 116 73
Width: 312
VWidth: 0
Flags: W
HStem: 0 56<214 270> 363 56<42 102 158 244> 580 20G<119 141>
VStem: 102 56<136 363 419 583>
LayerCount: 2
Back
Fore
SplineSet
102 419 m 1
 102 572 l 1
 104 583 l 1
 110 592 l 1
 119 598 l 1
 130 600 l 1
 141 598 l 1
 150 592 l 1
 156 583 l 1
 158 572 l 1
 158 419 l 1
 234 419 l 1
 244 417 l 1
 253 410 l 1
 259 401 l 1
 262 391 l 1
 259 380 l 1
 253 371 l 1
 244 365 l 1
 158 363 l 1
 158 136 l 1
 179 74 l 1
 214 56 l 1
 260 56 l 1
 270 54 l 1
 279 48 l 1
 285 39 l 1
 288 28 l 1
 285 17 l 1
 279 8 l 1
 270 2 l 1
 208 0 l 1
 195 3 l 1
 143 29 l 1
 135 36 l 1
 129 45 l 1
 102 132 l 1
 102 363 l 1
 42 365 l 1
 32 371 l 1
 26 380 l 1
 24 391 l 1
 26 401 l 1
 32 410 l 1
 42 417 l 1
 102 419 l 1
EndSplineSet
EndChar

StartChar: u
Encoding: 117 117 74
Width: 492
VWidth: 0
Flags: W
HStem: 0 56<188 252> 399 20G<93 114 378 399>
VStem: 75 56<136 401> 360 56<17 64 143 401>
LayerCount: 2
Back
Fore
SplineSet
75 132 m 1
 75 391 l 1
 78 401 l 1
 84 410 l 1
 93 417 l 1
 103 419 l 1
 114 417 l 1
 123 410 l 1
 129 401 l 1
 131 391 l 1
 131 136 l 1
 152 74 l 1
 188 56 l 1
 252 56 l 1
 294 77 l 1
 360 143 l 1
 360 391 l 1
 363 401 l 1
 369 410 l 1
 378 417 l 1
 388 419 l 1
 399 417 l 1
 408 410 l 1
 414 401 l 1
 416 391 l 1
 416 28 l 1
 414 17 l 1
 408 8 l 1
 399 2 l 1
 388 0 l 1
 378 2 l 1
 369 8 l 1
 363 17 l 1
 360 28 l 1
 360 64 l 1
 323 29 l 1
 271 3 l 1
 259 0 l 1
 181 0 l 1
 169 3 l 1
 108 36 l 1
 103 45 l 1
 75 132 l 1
EndSplineSet
EndChar

StartChar: v
Encoding: 118 118 75
Width: 413
VWidth: 0
Flags: W
HStem: 0 21G<196 217> 399 20G<40 61 351 372>
LayerCount: 2
Back
Fore
SplineSet
206 99 m 1
 336 402 l 1
 342 411 l 1
 351 417 l 1
 362 419 l 1
 372 416 l 1
 381 410 l 1
 387 401 l 1
 389 390 l 1
 387 380 l 1
 232 17 l 1
 226 8 l 1
 217 2 l 1
 206 0 l 1
 196 2 l 1
 186 8 l 1
 180 17 l 1
 25 380 l 1
 23 390 l 1
 25 401 l 1
 31 410 l 1
 40 416 l 1
 50 419 l 1
 61 417 l 1
 70 411 l 1
 76 402 l 1
 206 99 l 1
EndSplineSet
EndChar

StartChar: w
Encoding: 119 119 76
Width: 569
VWidth: 0
Flags: W
HStem: 0 21G<163 188 370 395> 398 20G<59 90 267 301 478 509>
LayerCount: 2
Back
Fore
SplineSet
180 130 m 1
 257 398 l 1
 267 413 l 1
 276 418 l 1
 292 418 l 1
 301 413 l 1
 308 404 l 1
 388 130 l 1
 464 398 l 1
 469 408 l 1
 478 415 l 1
 488 418 l 1
 499 418 l 1
 509 413 l 1
 516 404 l 1
 519 394 l 1
 518 383 l 1
 415 20 l 1
 410 11 l 1
 395 1 l 1
 384 0 l 1
 370 6 l 1
 363 14 l 1
 284 289 l 1
 207 20 l 1
 198 6 l 1
 188 1 l 1
 177 0 l 1
 163 6 l 1
 153 20 l 1
 50 383 l 1
 49 394 l 1
 52 404 l 1
 59 413 l 1
 69 418 l 1
 80 418 l 1
 90 415 l 1
 99 408 l 1
 104 398 l 1
 180 130 l 1
EndSplineSet
EndChar

StartChar: x
Encoding: 120 120 77
Width: 439
VWidth: 0
Flags: W
HStem: 0 21G<69 90 348 369> 398 20G<59 90 348 379>
LayerCount: 2
Back
Fore
SplineSet
54 45 m 1
 183 209 l 1
 54 373 l 1
 50 383 l 1
 49 394 l 1
 52 404 l 1
 59 413 l 1
 69 418 l 1
 80 418 l 1
 90 415 l 1
 98 408 l 1
 219 255 l 1
 339 408 l 1
 348 415 l 1
 358 418 l 1
 369 418 l 1
 379 413 l 1
 386 404 l 1
 389 394 l 1
 388 383 l 1
 383 373 l 1
 255 209 l 1
 383 45 l 1
 388 36 l 1
 389 25 l 1
 386 14 l 1
 379 6 l 1
 369 1 l 1
 358 0 l 1
 348 4 l 1
 339 11 l 1
 219 164 l 1
 98 11 l 1
 90 4 l 1
 80 0 l 1
 69 1 l 1
 59 6 l 1
 52 14 l 1
 49 25 l 1
 50 36 l 1
 54 45 l 1
EndSplineSet
EndChar

StartChar: y
Encoding: 121 121 78
Width: 413
VWidth: 0
Flags: W
HStem: -181 21G<14 63> 399 20G<40 61 351 372>
LayerCount: 2
Back
Fore
SplineSet
175 29 m 1
 25 380 l 1
 23 390 l 1
 25 401 l 1
 31 410 l 1
 40 416 l 1
 50 419 l 1
 61 417 l 1
 70 411 l 1
 76 402 l 1
 206 99 l 1
 336 402 l 1
 342 411 l 1
 351 417 l 1
 362 419 l 1
 372 416 l 1
 381 410 l 1
 387 401 l 1
 389 390 l 1
 387 380 l 1
 232 17 l 1
 179 -88 l 1
 122 -147 l 1
 63 -178 l 1
 25 -181 l 1
 14 -179 l 1
 5 -173 l 1
 -1 -164 l 1
 -3 -153 l 1
 -1 -143 l 1
 5 -134 l 1
 14 -127 l 1
 44 -125 l 1
 86 -104 l 1
 131 -59 l 1
 175 29 l 1
EndSplineSet
EndChar

StartChar: z
Encoding: 122 122 79
Width: 440
VWidth: 0
Flags: W
HStem: 0 56<135 373> 363 56<67 305>
LayerCount: 2
Back
Fore
SplineSet
50 26 m 1
 55 45 l 1
 305 363 l 1
 77 363 l 1
 67 365 l 1
 58 371 l 1
 52 380 l 1
 49 391 l 1
 52 401 l 1
 58 410 l 1
 67 417 l 1
 77 419 l 1
 362 419 l 1
 380 413 l 1
 387 404 l 1
 390 394 l 1
 389 383 l 1
 384 373 l 1
 135 56 l 1
 362 56 l 1
 373 54 l 1
 382 48 l 1
 388 39 l 1
 390 28 l 1
 388 17 l 1
 382 8 l 1
 373 2 l 1
 362 0 l 1
 77 0 l 1
 67 2 l 1
 58 8 l 1
 50 26 l 1
EndSplineSet
EndChar

StartChar: bar
Encoding: 124 124 80
Width: 208
VWidth: 0
Flags: W
HStem: -181 21G<93 115>
VStem: 76 56<-164 686>
LayerCount: 2
Back
Fore
SplineSet
76 -153 m 1
 76 676 l 1
 78 686 l 1
 84 695 l 1
 93 701 l 1
 104 704 l 1
 115 701 l 1
 124 695 l 1
 130 686 l 1
 132 676 l 1
 132 -153 l 1
 130 -164 l 1
 124 -173 l 1
 115 -179 l 1
 104 -181 l 1
 93 -179 l 1
 84 -173 l 1
 78 -164 l 1
 76 -153 l 1
EndSplineSet
EndChar

StartChar: degree
Encoding: 176 176 81
Width: 363
VWidth: 0
Flags: W
HStem: 337 56<162 200> 544 56<162 200>
VStem: 49 56<449 488> 257 56<449 488>
LayerCount: 2
Back
Fore
SplineSet
91 571 m 1
 144 598 l 1
 207 600 l 1
 219 597 l 1
 279 566 l 1
 310 507 l 1
 313 494 l 1
 313 442 l 1
 310 430 l 1
 279 371 l 1
 219 340 l 1
 207 337 l 1
 155 337 l 1
 143 340 l 1
 83 371 l 1
 52 430 l 1
 49 442 l 1
 49 494 l 1
 52 507 l 1
 78 559 l 1
 91 571 l 1
162 544 m 1
 124 525 l 1
 105 488 l 1
 105 449 l 1
 124 412 l 1
 162 393 l 1
 200 393 l 1
 238 412 l 1
 257 449 l 1
 257 488 l 1
 238 525 l 1
 200 544 l 1
 162 544 l 1
EndSplineSet
EndChar

StartChar: periodcentered
Encoding: 183 183 82
Width: 261
VWidth: 0
Flags: W
HStem: 209 104
VStem: 78 104
LayerCount: 2
Back
Fore
SplineSet
84 281 m 1
 119 313 l 1
 130 315 l 1
 141 313 l 1
 150 307 l 1
 182 272 l 1
 184 261 l 1
 182 250 l 1
 150 215 l 1
 141 209 l 1
 130 207 l 1
 119 209 l 1
 84 241 l 1
 78 250 l 1
 76 261 l 1
 78 272 l 1
 84 281 l 1
EndSplineSet
EndChar

StartChar: multiply
Encoding: 215 215 83
Width: 569
VWidth: 0
Flags: W
LayerCount: 2
Back
Fore
SplineSet
83 100 m 1
 244 261 l 1
 83 423 l 1
 77 432 l 1
 75 442 l 1
 77 453 l 1
 83 462 l 1
 92 468 l 1
 103 470 l 1
 113 468 l 1
 122 462 l 1
 284 301 l 1
 446 462 l 1
 455 468 l 1
 465 470 l 1
 476 468 l 1
 485 462 l 1
 491 453 l 1
 493 442 l 1
 491 432 l 1
 485 423 l 1
 324 261 l 1
 485 100 l 1
 491 91 l 1
 493 80 l 1
 491 69 l 1
 485 60 l 1
 476 54 l 1
 465 52 l 1
 455 54 l 1
 446 60 l 1
 284 222 l 1
 122 60 l 1
 113 54 l 1
 103 52 l 1
 92 54 l 1
 83 60 l 1
 77 69 l 1
 75 80 l 1
 77 91 l 1
 83 100 l 1
EndSplineSet
EndChar

StartChar: glyph84
Encoding: 256 8216 84
Width: 261
VWidth: 0
Flags: W
HStem: 391 207 580 20G<145 167>
VStem: 78 104
LayerCount: 2
Back
Fore
SplineSet
110 566 m 1xa0
 136 592 l 1
 145 598 l 1xa0
 156 600 l 1x60
 167 598 l 1
 176 592 l 1
 182 583 l 1
 184 572 l 1
 182 561 l 1
 153 530 l 1
 136 495 l 1
 150 488 l 1
 176 462 l 1
 182 453 l 1
 184 442 l 1
 182 432 l 1
 150 397 l 1
 141 391 l 1
 130 389 l 1
 119 391 l 1
 110 397 l 1
 84 423 l 1
 78 432 l 1
 76 442 l 1
 76 494 l 1
 79 507 l 1
 110 566 l 1xa0
EndSplineSet
EndChar

StartChar: glyph85
Encoding: 257 8217 85
Width: 261
VWidth: 0
Flags: W
HStem: 391 207 580 20G<119 141>
VStem: 78 104
LayerCount: 2
Back
Fore
SplineSet
124 493 m 1xa0
 110 500 l 1
 84 526 l 1
 78 535 l 1
 76 546 l 1
 78 557 l 1
 84 566 l 1
 110 592 l 1
 119 598 l 1xa0
 130 600 l 1x60
 141 598 l 1
 150 592 l 1
 182 557 l 1
 184 494 l 1
 181 482 l 1
 150 423 l 1
 115 391 l 1
 104 389 l 1
 93 391 l 1
 84 397 l 1
 78 406 l 1
 76 417 l 1
 78 427 l 1
 107 459 l 1
 124 493 l 1xa0
EndSplineSet
EndChar

StartChar: glyph86
Encoding: 258 8594 86
Width: 673
VWidth: 0
Flags: W
HStem: 233 56<92 477> 399 20G<403 424>
LayerCount: 2
Back
Fore
SplineSet
472 293 m 1
 388 380 l 1
 386 391 l 1
 388 401 l 1
 394 410 l 1
 403 417 l 1
 414 419 l 1
 424 417 l 1
 434 410 l 1
 509 335 l 1
 589 281 l 1
 595 272 l 1
 597 261 l 1
 595 250 l 1
 589 241 l 1
 509 188 l 1
 434 112 l 1
 424 106 l 1
 414 104 l 1
 403 106 l 1
 394 112 l 1
 388 121 l 1
 386 132 l 1
 388 142 l 1
 394 151 l 1
 477 233 l 1
 103 233 l 1
 92 235 l 1
 83 241 l 1
 77 250 l 1
 75 261 l 1
 77 272 l 1
 83 281 l 1
 92 287 l 1
 103 289 l 1
 477 289 l 1
 472 293 l 1
EndSplineSet
EndChar

StartChar: glyph87
Encoding: 259 8977 87
Width: 571
VWidth: 0
Flags: W
HStem: 1 21G<34 101 469 539> 52 56<183.56 386.44> 414 56<183.56 386.44>
VStem: 76 56<159.84 362.44> 438 56<159.84 362.44>
LayerCount: 2
Back
Fore
SplineSet
24 494 m 1
 27 507 l 1
 34 515 l 1
 43 521 l 1
 54 522 l 1
 113 495 l 1
 211 470 l 1
 359 470 l 1
 457 495 l 1
 509 521 l 1
 527 521 l 1
 536 515 l 1
 545 503 l 1
 545 485 l 1
 519 433 l 1
 494 335 l 1
 494 187 l 1
 519 90 l 1
 545 37 l 1
 545 19 l 1
 539 10 l 1
 527 1 l 1
 509 1 l 1
 457 27 l 1
 359 52 l 1
 211 52 l 1
 113 27 l 1
 61 1 l 1
 43 1 l 1
 34 7 l 1
 25 19 l 1
 25 37 l 1
 51 90 l 1
 76 187 l 1
 76 335 l 1
 51 433 l 1
 27 482 l 1
 24 494 l 1
108 439 m 1
 132 339 l 1
 132 183 l 1
 108 84 l 1
 207 108 l 1
 363 108 l 1
 462 84 l 1
 438 183 l 1
 438 339 l 1
 462 439 l 1
 363 414 l 1
 207 414 l 1
 108 439 l 1
EndSplineSet
EndChar

